# Made in Blockbench 5.1.6
mtllib eclipse.mtl

o cube
v 0.1125 0.1375 0
v 0.1125 0.1375 0
v 0.1125 -0.08125 0
v 0.1125 -0.08125 0
v -0.10625 0.1375 0
v -0.10625 0.1375 0
v -0.10625 -0.08125 0
v -0.10625 -0.08125 0
vt 0.0546875 0.96875
vt 0.078125 0.96875
vt 0.078125 0.9453125
vt 0.0546875 0.9453125
vt 0.0546875 0.96875
vt 0.0546875 0.96875
vt 0.0546875 0.9453125
vt 0.0546875 0.9453125
vt 0.078125 0.96875
vt 0.1015625 0.96875
vt 0.1015625 0.9453125
vt 0.078125 0.9453125
vt 0.078125 0.96875
vt 0.078125 0.96875
vt 0.078125 0.9453125
vt 0.078125 0.9453125
vt 0.078125 0.96875
vt 0.0546875 0.96875
vt 0.0546875 0.96875
vt 0.078125 0.96875
vt 0.1015625 0.96875
vt 0.078125 0.96875
vt 0.078125 0.96875
vt 0.1015625 0.96875
vn 0 0 -1
vn 1 0 0
vn 0 0 1
vn -1 0 0
vn 0 1 0
vn 0 -1 0
usemtl m_3e34c4ba-a3ca-3260-00dc-354e1446544b
f 4/4/1 7/3/1 5/2/1 2/1/1
f 3/8/2 4/7/2 2/6/2 1/5/2
f 8/12/3 3/11/3 1/10/3 6/9/3
f 7/16/4 8/15/4 6/14/4 5/13/4
f 6/20/5 1/19/5 2/18/5 5/17/5
f 7/24/6 4/23/6 3/22/6 8/21/6
o cube
v -0.004907181078600287 0.1375 -0.11239292492795899
v -0.004907181078600287 0.1375 -0.11239292492795899
v -0.004907181078600287 -0.08125 -0.11239292492795899
v -0.004907181078600287 -0.08125 -0.11239292492795899
v 0.004634559907566937 0.1375 0.10614887354307238
v 0.004634559907566937 0.1375 0.10614887354307238
v 0.004634559907566937 -0.08125 0.10614887354307238
v 0.004634559907566937 -0.08125 0.10614887354307238
vt 0.0546875 0.96875
vt 0.078125 0.96875
vt 0.078125 0.9453125
vt 0.0546875 0.9453125
vt 0.0546875 0.96875
vt 0.0546875 0.96875
vt 0.0546875 0.9453125
vt 0.0546875 0.9453125
vt 0.078125 0.96875
vt 0.1015625 0.96875
vt 0.1015625 0.9453125
vt 0.078125 0.9453125
vt 0.078125 0.96875
vt 0.078125 0.96875
vt 0.078125 0.9453125
vt 0.078125 0.9453125
vt 0.078125 0.96875
vt 0.0546875 0.96875
vt 0.0546875 0.96875
vt 0.078125 0.96875
vt 0.1015625 0.96875
vt 0.078125 0.96875
vt 0.078125 0.96875
vt 0.1015625 0.96875
vn -0.9990482215818579 0 0.04361938736533589
vn -0.04361938736533589 0 -0.9990482215818579
vn 0.9990482215818579 0 -0.04361938736533589
vn 0.04361938736533589 0 0.9990482215818579
vn 0 1 0
vn 0 -1 0
usemtl m_3e34c4ba-a3ca-3260-00dc-354e1446544b
f 12/28/7 15/27/7 13/26/7 10/25/7
f 11/32/8 12/31/8 10/30/8 9/29/8
f 16/36/9 11/35/9 9/34/9 14/33/9
f 15/40/10 16/39/10 14/38/10 13/37/10
f 14/44/11 9/43/11 10/42/11 13/41/11
f 15/48/12 12/47/12 11/46/12 16/45/12
o mesh
v 0.140625 3.875 0
v 0.140625 3.25 0
v -0.140625 3.875 0
v -0.140625 3.25 0
v 0 0.28125 0
v 0 0.84375 0
v -0.01256 0.28125 -0.046875
v -0.01256 0.84375 -0.046875
v -0.034315 0.28125 -0.034315
v -0.034315 0.84375 -0.034315
v -0.046875 0.28125 -0.01256
v -0.046875 0.84375 -0.01256
v -0.046875 0.28125 0.01256
v -0.046875 0.84375 0.01256
v -0.034315 0.28125 0.034315
v -0.034315 0.84375 0.034315
v -0.01256 0.28125 0.046875
v -0.01256 0.84375 0.046875
v 0.01256 0.28125 -0.046875
v 0.01256 0.84375 -0.046875
v 0.034315 0.28125 -0.034315
v 0.034315 0.84375 -0.034315
v 0.046875 0.28125 -0.01256
v 0.046875 0.84375 -0.01256
v 0.046875 0.28125 0.01256
v 0.046875 0.84375 0.01256
v 0.034315 0.28125 0.034315
v 0.034315 0.84375 0.034315
v 0.01256 0.28125 0.046875
v 0.01256 0.84375 0.046875
v 7.654042494670958e-18 0.3125 0
v 5.35782974626967e-17 -0.0625 0
v -0.014653749999999993 0.3125 0.0546875
v -0.04003374999999999 0.3125 0.04003375
v -0.05468749999999999 0.3125 0.01465375
v -0.05468749999999999 0.3125 -0.01465375
v -0.04003374999999999 0.3125 -0.04003375
v -0.014653749999999993 0.3125 -0.0546875
v 0.014653750000000007 0.3125 -0.0546875
v 0.04003375000000001 0.3125 -0.04003375
v 0.05468750000000001 0.3125 -0.01465375
v 0.05468750000000001 0.3125 0.01465375
v 0.04003375000000001 0.3125 0.04003375
v 0.014653750000000007 0.3125 0.0546875
v 0 0.53125 -4.592425496802574e-17
v -0.109375 1.15625 -0.03124999999999997
v -0.109375 1.15625 0.03125000000000003
v 0.109375 1.15625 -0.03124999999999997
v 0.109375 1.15625 0.03125000000000003
v -0.32242790737957805 1.0442569333749012 0
v -0.08165247467861758 1.1184442200732652 0.015625
v -0.08165247467861758 1.1184442200732652 -0.015625
v -0.07079946357443445 1.0568937355100023 0.015625
v -0.07079946357443445 1.0568937355100023 -0.015625
v 0.453153893518325 1.2894341308703496 0
v -0.03301705169849213 1.1489302958622383 0.046875
v -0.03301705169849213 1.1489302958622383 -0.046875
v 0.03301705169849213 1.0073197041377617 0.046875
v 0.03301705169849213 1.0073197041377617 -0.046875
v 0.4095963278558725 1.3702290013037963 0
v 0.21765885917664113 1.2070218610892551 0.015625
v 0.21765885917664113 1.2070218610892551 -0.015625
v 0.2637386927272739 1.1647974731132762 0.015625
v 0.2637386927272739 1.1647974731132762 -0.015625
v -0.453153893518325 1.2894341308703496 0
v 0.03301705169849213 1.1489302958622383 0.046875
v 0.03301705169849213 1.1489302958622383 -0.046875
v -0.03301705169849213 1.0073197041377617 0.046875
v -0.03301705169849213 1.0073197041377617 -0.046875
v 0.32242790737957805 1.0442569333749012 0
v 0.08165247467861758 1.1184442200732652 0.015625
v 0.08165247467861758 1.1184442200732652 -0.015625
v 0.07079946357443445 1.0568937355100023 0.015625
v 0.07079946357443445 1.0568937355100023 -0.015625
v -0.4095963278558725 1.3702290013037963 0
v -0.21765885917664113 1.2070218610892551 0.015625
v -0.21765885917664113 1.2070218610892551 -0.015625
v -0.2637386927272739 1.1647974731132762 0.015625
v -0.2637386927272739 1.1647974731132762 -0.015625
v -0.046875 0.34375 0.046875
v -0.046875 0.34375 -0.046875
v -0.046875 0.21875 0.046875
v -0.046875 0.21875 -0.046875
v -0.0625 0.25 0.046875
v -0.0625 0.3125 0.046875
v -0.0625 0.25 -0.046875
v -0.0625 0.3125 -0.046875
v -0.046875 0.25 -0.0625
v -0.046875 0.3125 -0.0625
v -0.046875 0.25 0.0625
v -0.046875 0.3125 0.0625
v 0.046875 0.34375 0.046875
v 0.046875 0.34375 -0.046875
v 0.046875 0.21875 0.046875
v 0.046875 0.21875 -0.046875
v 0.0625 0.25 0.046875
v 0.0625 0.3125 0.046875
v 0.0625 0.25 -0.046875
v 0.0625 0.3125 -0.046875
v 0.046875 0.25 -0.0625
v 0.046875 0.3125 -0.0625
v 0.046875 0.25 0.0625
v 0.046875 0.3125 0.0625
v 0 4.078125 0
v -0.078125 3.390625 0.03125
v -0.140625 3.390625 0
v 0.078125 3.390625 0.03125
v 0.140625 3.390625 0
v 7.654042494670958e-18 0.9375 0
v -6.888638245203862e-17 0.3125 0
v 0.01674687500000001 0.9375 0.0625
v 0.045753125000000006 0.9375 0.045753125
v 0.06250000000000001 0.9375 0.016746875
v 0.06250000000000001 0.9375 -0.016746875
v 0.045753125000000006 0.9375 -0.045753125
v 0.01674687500000001 0.9375 -0.0625
v -0.016746874999999994 0.9375 -0.0625
v -0.04575312499999999 0.9375 -0.045753125
v -0.06249999999999999 0.9375 -0.016746875
v -0.06249999999999999 0.9375 0.016746875
v -0.04575312499999999 0.9375 0.045753125
v -0.016746874999999994 0.9375 0.0625
v 0 0.53125 4.592425496802574e-17
v 0.07812499999999999 1.15625 -0.06250000000000004
v -0.07812500000000001 1.15625 -0.06250000000000001
v 0.07812500000000001 1.15625 0.06249999999999996
v -0.07812499999999999 1.15625 0.062499999999999986
v -1.1481063742006436e-17 1.40625 0
v 7.271340369937409e-17 0.71875 0
v -0.04186687500000001 1.40625 0.046875
v -0.11438312500000002 1.40625 0.034315
v -0.15625 1.40625 0.01256
v -0.15625 1.40625 -0.01256
v -0.11438312500000002 1.40625 -0.034315
v -0.04186687500000001 1.40625 -0.046875
v 0.041866874999999984 1.40625 -0.046875
v 0.11438312499999999 1.40625 -0.034315
v 0.15625 1.40625 -0.01256
v 0.15625 1.40625 0.01256
v 0.11438312499999999 1.40625 0.034315
v 0.041866874999999984 1.40625 0.046875
v 0 1.40625 0
v 0 1.75 0
v -0.041866875 1.40625 -0.046875
v -0.114383125 1.40625 -0.034315
v -0.15625 1.40625 -0.01256
v -0.15625 1.40625 0.01256
v -0.114383125 1.40625 0.034315
v -0.041866875 1.40625 0.046875
v 0.041866875 1.40625 -0.046875
v 0.114383125 1.40625 -0.034315
v 0.15625 1.40625 -0.01256
v 0.15625 1.40625 0.01256
v 0.114383125 1.40625 0.034315
v 0.041866875 1.40625 0.046875
v 0 4.078125 0
v -0.078125 3.390625 -0.03124999999999999
v -0.140625 3.390625 1.7221595613009655e-17
v 0.078125 3.390625 -0.03125000000000001
v 0.140625 3.390625 -1.7221595613009655e-17
v -0.07812500000000022 1.390625 -0.03125000000000022
v -0.14062500000000022 1.390625 -2.220446049250313e-16
v -0.07812500000000022 1.390625 0.031249999999999778
v -0.14062499999999978 3.390625 2.220446049250313e-16
v 0.07812499999999978 1.390625 -0.03125000000000022
v 0.14062499999999978 1.390625 -2.220446049250313e-16
v 0.07812499999999978 1.390625 0.031249999999999778
v 0.07812500000000022 3.390625 -0.031249999999999778
v 0.07812500000000022 3.390625 -0.031249999999999778
v 0.07812499999999975 1.296875 0.03124999999999975
v 0.07812499999999975 1.296875 -0.03125000000000022
v 0.07812500000000007 2.689395625 0.031250000000000056
v -0.07812499999999978 3.390625 0.03125000000000022
v -0.07812499999999978 3.390625 -0.031249999999999778
v -0.07812500000000025 1.296875 0.03124999999999975
v -0.07812500000000025 1.296875 -0.03125000000000022
v -0.07812499999999993 2.689395625 0.031250000000000056
v 0.07812500000000022 3.390625 0.03125000000000022
v -0.07812499999999978 3.390625 -0.031249999999999778
v -0.07812499999999978 3.390625 0.03125000000000022
v 0.14062500000000022 3.390625 2.220446049250313e-16
v 0.07812500000000022 3.390625 0.03125000000000022
v 0.3125 3.4375 0
v 0.3125 1.1875 0
v -0.3125 3.4375 0
v -0.3125 1.1875 0
vt 0.328125 0.4375
vt 0.328125 1
vt 0.171875 1
vt 0.171875 0.4375
vt 0.328125 0.4375
vt 0.328125 1
vt 0.171875 1
vt 0.171875 0.4375
vt 0.0374921875 0.5390625
vt 0.0406328125 0.5390625
vt 0.0390625 0.544921875
vt 0.3890546875 0.7265625
vt 0.3921953125 0.7265625
vt 0.3921953125 0.796875
vt 0.3890546875 0.796875
vt 0.4546953125 0.71875
vt 0.4515546875 0.71875
vt 0.453125 0.712890625
vt 0.0347734375 0.5406328125
vt 0.0374921875 0.5390625
vt 0.0390625 0.544921875
vt 0.3921953125 0.7265625
vt 0.3953359375 0.7265625
vt 0.3953359375 0.796875
vt 0.3921953125 0.796875
vt 0.4515546875 0.71875
vt 0.4488359375 0.7171796875
vt 0.453125 0.712890625
vt 0.033203125 0.5433515625
vt 0.0347734375 0.5406328125
vt 0.0390625 0.544921875
vt 0.3468515625 0.5390625
vt 0.3499921875 0.5390625
vt 0.3499921875 0.609375
vt 0.3468515625 0.609375
vt 0.4488359375 0.7171796875
vt 0.447265625 0.7144609375
vt 0.453125 0.712890625
vt 0.033203125 0.5464921875
vt 0.033203125 0.5433515625
vt 0.0390625 0.544921875
vt 0.3499921875 0.5390625
vt 0.3531328125 0.5390625
vt 0.3531328125 0.609375
vt 0.3499921875 0.609375
vt 0.447265625 0.7144609375
vt 0.447265625 0.7113203125
vt 0.453125 0.712890625
vt 0.0347734375 0.5492109375
vt 0.033203125 0.5464921875
vt 0.0390625 0.544921875
vt 0.3531328125 0.5390625
vt 0.3562734375 0.5390625
vt 0.3562734375 0.609375
vt 0.3531328125 0.609375
vt 0.447265625 0.7113203125
vt 0.4488359375 0.7086015625
vt 0.453125 0.712890625
vt 0.0374921875 0.55078125
vt 0.0347734375 0.5492109375
vt 0.0390625 0.544921875
vt 0.2140390625 0.546875
vt 0.2171796875 0.546875
vt 0.2171796875 0.6171875
vt 0.2140390625 0.6171875
vt 0.4488359375 0.7086015625
vt 0.4515546875 0.70703125
vt 0.453125 0.712890625
vt 0.0406328125 0.55078125
vt 0.0374921875 0.55078125
vt 0.0390625 0.544921875
vt 0.2171796875 0.546875
vt 0.2203203125 0.546875
vt 0.2203203125 0.6171875
vt 0.2171796875 0.6171875
vt 0.4515546875 0.70703125
vt 0.4546953125 0.70703125
vt 0.453125 0.712890625
vt 0.0406328125 0.5390625
vt 0.0433515625 0.5406328125
vt 0.0390625 0.544921875
vt 0.3859140625 0.796875
vt 0.3859140625 0.7265625
vt 0.3890546875 0.7265625
vt 0.3890546875 0.796875
vt 0.4574140625 0.7171796875
vt 0.4546953125 0.71875
vt 0.453125 0.712890625
vt 0.0433515625 0.5406328125
vt 0.044921875 0.5433515625
vt 0.0390625 0.544921875
vt 0.3765703125 0.609375
vt 0.3765703125 0.5390625
vt 0.3797109375 0.5390625
vt 0.3797109375 0.609375
vt 0.458984375 0.7144609375
vt 0.4574140625 0.7171796875
vt 0.453125 0.712890625
vt 0.044921875 0.5433515625
vt 0.044921875 0.5464921875
vt 0.0390625 0.544921875
vt 0.3734296875 0.609375
vt 0.3734296875 0.5390625
vt 0.3765703125 0.5390625
vt 0.3765703125 0.609375
vt 0.458984375 0.7113203125
vt 0.458984375 0.7144609375
vt 0.453125 0.712890625
vt 0.044921875 0.5464921875
vt 0.0433515625 0.5492109375
vt 0.0390625 0.544921875
vt 0.3702890625 0.609375
vt 0.3702890625 0.5390625
vt 0.3734296875 0.5390625
vt 0.3734296875 0.609375
vt 0.4574140625 0.7086015625
vt 0.458984375 0.7113203125
vt 0.453125 0.712890625
vt 0.0433515625 0.5492109375
vt 0.0406328125 0.55078125
vt 0.0390625 0.544921875
vt 0.2203203125 0.6171875
vt 0.2203203125 0.546875
vt 0.2234609375 0.546875
vt 0.2234609375 0.6171875
vt 0.4546953125 0.70703125
vt 0.4574140625 0.7086015625
vt 0.453125 0.712890625
vt 0.44250390625 0.79308984375
vt 0.43933203125 0.794921875
vt 0.4375 0.7880859375
vt 0.05651953125 0.8901296875
vt 0.06017265625 0.89041265625
vt 0.0546875 0.9375
vt 0.4443359375 0.78991796875
vt 0.44250390625 0.79308984375
vt 0.4375 0.7880859375
vt 0.39295234375 0.56228765625
vt 0.39660546875 0.5620046875
vt 0.3984375 0.609375
vt 0.4443359375 0.78625390625
vt 0.4443359375 0.78991796875
vt 0.4375 0.7880859375
vt 0.39660546875 0.5620046875
vt 0.40026953125 0.5620046875
vt 0.3984375 0.609375
vt 0.44250390625 0.78308203125
vt 0.4443359375 0.78625390625
vt 0.4375 0.7880859375
vt 0.40026953125 0.5620046875
vt 0.40392265625 0.56228765625
vt 0.3984375 0.609375
vt 0.43933203125 0.78125
vt 0.44250390625 0.78308203125
vt 0.4375 0.7880859375
vt 0.22107734375 0.95291265625
vt 0.22473046875 0.9526296875
vt 0.2265625 1
vt 0.43566796875 0.78125
vt 0.43933203125 0.78125
vt 0.4375 0.7880859375
vt 0.22473046875 0.9526296875
vt 0.22839453125 0.9526296875
vt 0.2265625 1
vt 0.43249609375 0.78308203125
vt 0.43566796875 0.78125
vt 0.4375 0.7880859375
vt 0.22839453125 0.9526296875
vt 0.23204765625 0.95291265625
vt 0.2265625 1
vt 0.4306640625 0.78625390625
vt 0.43249609375 0.78308203125
vt 0.4375 0.7880859375
vt 0.15857734375 0.55447515625
vt 0.16223046875 0.5541921875
vt 0.1640625 0.6015625
vt 0.4306640625 0.78991796875
vt 0.4306640625 0.78625390625
vt 0.4375 0.7880859375
vt 0.16223046875 0.5541921875
vt 0.16589453125 0.5541921875
vt 0.1640625 0.6015625
vt 0.43249609375 0.79308984375
vt 0.4306640625 0.78991796875
vt 0.4375 0.7880859375
vt 0.16589453125 0.5541921875
vt 0.16954765625 0.55447515625
vt 0.1640625 0.6015625
vt 0.43566796875 0.794921875
vt 0.43249609375 0.79308984375
vt 0.4375 0.7880859375
vt 0.04920234375 0.89041265625
vt 0.05285546875 0.8901296875
vt 0.0546875 0.9375
vt 0.43933203125 0.794921875
vt 0.43566796875 0.794921875
vt 0.4375 0.7880859375
vt 0.05285546875 0.8901296875
vt 0.05651953125 0.8901296875
vt 0.0546875 0.9375
vt 0.140625 0.9921875
vt 0.140625 1
vt 0.109375 1
vt 0.109375 0.9921875
vt 0.025594765625 0.690924375
vt 0.052530234375 0.6862165625000001
vt 0.052530234375 0.765625
vt 0.259969765625 0.925299375
vt 0.286905234375 0.9205915625
vt 0.286905234375 1
vt 0.000004765625 0.756913203125
vt 0.007807734375 0.756528828125
vt 0.007807734375 0.8359375
vt 0.093754765625 0.647538203125
vt 0.101557734375 0.647153828125
vt 0.101557734375 0.7265625
vt 0.078125 0.8984375
vt 0.078125 0.90625
vt 0.0703125 0.90625
vt 0.0703125 0.8984375
vt 0.416019375 0.5311874999999999
vt 0.419918125 0.53094578125
vt 0.419918125 0.5625
vt 0.093780078125 0.828788515625
vt 0.101532421875 0.827821328125
vt 0.101532421875 0.859375
vt 0.242217578125 0.969413515625
vt 0.249969921875 0.968446328125
vt 0.249969921875 1
vt 0.447269375 0.6639999999999999
vt 0.451168125 0.66375828125
vt 0.451168125 0.6953125
vt 0.171875 1
vt 0.1484375 1
vt 0.1484375 0.984375
vt 0.171875 0.984375
vt 0.134790625 0.578176484375
vt 0.146459375 0.577095625
vt 0.146459375 0.640625
vt 0.32238171875 0.642598046875
vt 0.34168078125 0.639595703125
vt 0.34168078125 0.703125
vt 0.33019421875 0.939473046875
vt 0.34949328125 0.936470703125
vt 0.34949328125 1
vt 0.322290625 0.562551484375
vt 0.333959375 0.561470625
vt 0.333959375 0.625
vt 0.1171875 0.984375
vt 0.109375 0.984375
vt 0.109375 0.9765625
vt 0.1171875 0.9765625
vt 0.447269375 0.6171249999999999
vt 0.451168125 0.61688328125
vt 0.451168125 0.6484375
vt 0.187530078125 0.664726015625
vt 0.195282421875 0.663758828125
vt 0.195282421875 0.6953125
vt 0.304717578125 0.563163515625
vt 0.312469921875 0.562196328125
vt 0.312469921875 0.59375
vt 0.447269375 0.5702499999999999
vt 0.451168125 0.57000828125
vt 0.451168125 0.6015625
vt 0.171875 0.9609375
vt 0.171875 0.9765625
vt 0.1484375 0.9765625
vt 0.1484375 0.9609375
vt 0.384790625 0.937551484375
vt 0.396459375 0.936470625
vt 0.396459375 1
vt 0.33019421875 0.720723046875
vt 0.34949328125 0.717720703125
vt 0.34949328125 0.78125
vt 0.23644421875 0.603535546875
vt 0.25574328125 0.600533203125
vt 0.25574328125 0.6640625
vt 0.111353125 0.554738984375
vt 0.123021875 0.553658125
vt 0.123021875 0.6171875
vt 0.125 0.90625
vt 0.1171875 0.90625
vt 0.1171875 0.8984375
vt 0.125 0.8984375
vt 0.447269375 0.5233749999999999
vt 0.451168125 0.52313328125
vt 0.451168125 0.5546875
vt 0.015655078125 0.555351015625
vt 0.023407421875 0.554383828125
vt 0.023407421875 0.5859375
vt 0.234405078125 0.555351015625
vt 0.242157421875 0.554383828125
vt 0.242157421875 0.5859375
vt 0.001956875 0.5155624999999999
vt 0.005855625 0.51532078125
vt 0.005855625 0.546875
vt 0.0625 0.8671875
vt 0.0625 0.875
vt 0.0546875 0.875
vt 0.0546875 0.8671875
vt 0.455081875 0.9686875
vt 0.458980625 0.96844578125
vt 0.458980625 1
vt 0.250030078125 0.555351015625
vt 0.257782421875 0.554383828125
vt 0.257782421875 0.5859375
vt 0.414092578125 0.578788515625
vt 0.421844921875 0.577821328125
vt 0.421844921875 0.609375
vt 0.455081875 0.9218125
vt 0.458980625 0.92157078125
vt 0.458980625 0.953125
vt 0.435546875 0.7065703125
vt 0.435546875 0.7143828125
vt 0.423828125 0.7143828125
vt 0.423828125 0.7065703125
vt 0.234375 0.7265625
vt 0.234375 0.7421875
vt 0.21875 0.7421875
vt 0.21875 0.7265625
vt 0.140625 0.6640625
vt 0.15625 0.6640625
vt 0.15625 0.6796875
vt 0.140625 0.6796875
vt 0.435546875 0.6753203125
vt 0.435546875 0.6831328125
vt 0.423828125 0.6831328125
vt 0.423828125 0.6753203125
vt 0.443359375 0.9956328125
vt 0.431640625 0.9956328125
vt 0.431640625 0.9878203125
vt 0.443359375 0.9878203125
vt 0.435546875 0.7143828125
vt 0.435546875 0.71875
vt 0.423828125 0.71875
vt 0.423828125 0.7143828125
vt 0.435546875 0.6831328125
vt 0.435546875 0.6875
vt 0.423828125 0.6875
vt 0.423828125 0.6831328125
vt 0.443359375 1
vt 0.431640625 1
vt 0.431640625 0.9956328125
vt 0.443359375 0.9956328125
vt 0.423828125 0.702203125
vt 0.435546875 0.702203125
vt 0.435546875 0.7065703125
vt 0.423828125 0.7065703125
vt 0.423828125 0.670953125
vt 0.435546875 0.670953125
vt 0.435546875 0.6753203125
vt 0.423828125 0.6753203125
vt 0.431640625 0.9878203125
vt 0.431640625 0.983453125
vt 0.443359375 0.983453125
vt 0.443359375 0.9878203125
vt 0.2238 0.84741953125
vt 0.2238 0.83960703125
vt 0.2265625 0.83960703125
vt 0.2265625 0.84741953125
vt 0.453125 0.78491953125
vt 0.4558875 0.78491953125
vt 0.4558875 0.79273203125
vt 0.453125 0.79273203125
vt 0.45450625 0.7807765625
vt 0.4558875 0.78491953125
vt 0.453125 0.78491953125
vt 0.22518125 0.8354640625
vt 0.2265625 0.83960703125
vt 0.2238 0.83960703125
vt 0.45450625 0.796875
vt 0.453125 0.79273203125
vt 0.4558875 0.79273203125
vt 0.22518125 0.8515625
vt 0.2238 0.84741953125
vt 0.2265625 0.84741953125
vt 0.443359375 0.9643828125
vt 0.431640625 0.9643828125
vt 0.431640625 0.9565703125
vt 0.443359375 0.9565703125
vt 0.443359375 0.96875
vt 0.431640625 0.96875
vt 0.431640625 0.9643828125
vt 0.443359375 0.9643828125
vt 0.431640625 0.9565703125
vt 0.431640625 0.952203125
vt 0.443359375 0.952203125
vt 0.443359375 0.9565703125
vt 0.453125 0.75366953125
vt 0.4558875 0.75366953125
vt 0.4558875 0.76148203125
vt 0.453125 0.76148203125
vt 0.3097375 0.54273203125
vt 0.3097375 0.53491953125
vt 0.3125 0.53491953125
vt 0.3125 0.54273203125
vt 0.3097375 0.53491953125
vt 0.31111875 0.5307765625
vt 0.3125 0.53491953125
vt 0.453125 0.75366953125
vt 0.45450625 0.7495265625
vt 0.4558875 0.75366953125
vt 0.3125 0.54273203125
vt 0.31111875 0.546875
vt 0.3097375 0.54273203125
vt 0.4558875 0.76148203125
vt 0.45450625 0.765625
vt 0.453125 0.76148203125
vt 0.181640625 0.812411484375
vt 0.201171875 0.812411484375
vt 0.19140625 0.898437265625
vt 0.2132471875 0.763078359375
vt 0.2476903125 0.756033125
vt 0.2476903125 0.84375
vt 0.408203125 0.9296875
vt 0.443359375 0.9296875
vt 0.435546875 0.9375
vt 0.416015625 0.9375
vt 0.17291 0.812693046875
vt 0.181640625 0.812411484375
vt 0.19140625 0.8984375
vt 0.201171875 0.812411484375
vt 0.2099025 0.812693046875
vt 0.19140625 0.8984375
vt 0.03696953125 0.578125
vt 0.03334296875 0.57603203125
vt 0.0390625 0.5703125
vt 0.06403953125 0.5545214843749999
vt 0.06821953125 0.5542984375
vt 0.0703125 0.6328125
vt 0.03334296875 0.57603203125
vt 0.03125 0.57240546875
vt 0.0390625 0.5703125
vt 0.19740546875 0.5464859375
vt 0.20158546875 0.5467089843749999
vt 0.1953125 0.625
vt 0.03125 0.57240546875
vt 0.03125 0.56821953125
vt 0.0390625 0.5703125
vt 0.19321953125 0.5464859375
vt 0.19740546875 0.5464859375
vt 0.1953125 0.625
vt 0.03125 0.56821953125
vt 0.03334296875 0.56459296875
vt 0.0390625 0.5703125
vt 0.18903953125 0.5467089843749999
vt 0.19321953125 0.5464859375
vt 0.1953125 0.625
vt 0.03334296875 0.56459296875
vt 0.03696953125 0.5625
vt 0.0390625 0.5703125
vt 0.09584296875 0.5542984375
vt 0.10002296875 0.5545214843749999
vt 0.09375 0.6328125
vt 0.03696953125 0.5625
vt 0.04115546875 0.5625
vt 0.0390625 0.5703125
vt 0.09165703125 0.5542984375
vt 0.09584296875 0.5542984375
vt 0.09375 0.6328125
vt 0.04115546875 0.5625
vt 0.04478203125 0.56459296875
vt 0.0390625 0.5703125
vt 0.08747703125 0.5545214843749999
vt 0.09165703125 0.5542984375
vt 0.09375 0.6328125
vt 0.04478203125 0.56459296875
vt 0.046875 0.56821953125
vt 0.0390625 0.5703125
vt 0.38490546875 0.6246109375
vt 0.38908546875 0.6248339843749999
vt 0.3828125 0.703125
vt 0.046875 0.56821953125
vt 0.046875 0.57240546875
vt 0.0390625 0.5703125
vt 0.38071953125 0.6246109375
vt 0.38490546875 0.6246109375
vt 0.3828125 0.703125
vt 0.046875 0.57240546875
vt 0.04478203125 0.57603203125
vt 0.0390625 0.5703125
vt 0.37653953125 0.6248339843749999
vt 0.38071953125 0.6246109375
vt 0.3828125 0.703125
vt 0.04478203125 0.57603203125
vt 0.04115546875 0.578125
vt 0.0390625 0.5703125
vt 0.07240546875 0.5542984375
vt 0.07658546875 0.5545214843749999
vt 0.0703125 0.6328125
vt 0.04115546875 0.578125
vt 0.03696953125 0.578125
vt 0.0390625 0.5703125
vt 0.06821953125 0.5542984375
vt 0.07240546875 0.5542984375
vt 0.0703125 0.6328125
vt 0.03125 0.8359375
vt 0.015625 0.8359375
vt 0.015625 0.8125
vt 0.03125 0.8125
vt 0.2989028125 0.923290859375
vt 0.3182846875 0.92088015625
vt 0.3182846875 1
vt 0.296913203125 0.609922578125
vt 0.312461796875 0.6083797656250001
vt 0.312461796875 0.6875
vt 0.015663203125 0.602110078125
vt 0.031211796875 0.6005672656250001
vt 0.031211796875 0.6796875
vt 0.1582778125 0.618603359375
vt 0.1776596875 0.61619265625
vt 0.1776596875 0.6953125
vt 0.43226640625 0.6507734375
vt 0.42320234375 0.65234375
vt 0.41796875 0.646484375
vt 0.02867109375 0.85136328125
vt 0.037870390625 0.85147828125
vt 0.0234375 0.937499921875
vt 0.4375 0.6480546875
vt 0.43226640625 0.6507734375
vt 0.41796875 0.646484375
vt 0.037870390625 0.85147828125
vt 0.043762578125 0.85173265625
vt 0.0234375 0.937499921875
vt 0.4375 0.6449140625
vt 0.4375 0.6480546875
vt 0.41796875 0.646484375
vt 0.0023359375 0.5603078125000001
vt 0.0054765625 0.5603078125000001
vt 0.00390625 0.6484375
vt 0.43226640625 0.6421953125
vt 0.4375 0.6449140625
vt 0.41796875 0.646484375
vt 0.174987421875 0.91423265625
vt 0.180879609375 0.91397828125
vt 0.1953125 0.999999921875
vt 0.42320234375 0.640625
vt 0.43226640625 0.6421953125
vt 0.41796875 0.646484375
vt 0.180879609375 0.91397828125
vt 0.19007890625 0.91386328125
vt 0.1953125 0.999999921875
vt 0.41273515625 0.640625
vt 0.42320234375 0.640625
vt 0.41796875 0.646484375
vt 0.19007890625 0.91386328125
vt 0.20054609375 0.91386328125
vt 0.1953125 1
vt 0.40367109375 0.6421953125
vt 0.41273515625 0.640625
vt 0.41796875 0.646484375
vt 0.20054609375 0.91386328125
vt 0.209745390625 0.91397828125
vt 0.1953125 0.999999921875
vt 0.3984375 0.6449140625
vt 0.40367109375 0.6421953125
vt 0.41796875 0.646484375
vt 0.209745390625 0.91397828125
vt 0.215637578125 0.91423265625
vt 0.1953125 0.999999921875
vt 0.3984375 0.6480546875
vt 0.3984375 0.6449140625
vt 0.41796875 0.646484375
vt 0.2913984375 0.5056203125000001
vt 0.2945390625 0.5056203125000001
vt 0.29296875 0.59375
vt 0.40367109375 0.6507734375
vt 0.3984375 0.6480546875
vt 0.41796875 0.646484375
vt 0.003112421875 0.85173265625
vt 0.009004609375 0.85147828125
vt 0.0234375 0.937499921875
vt 0.41273515625 0.65234375
vt 0.40367109375 0.6507734375
vt 0.41796875 0.646484375
vt 0.009004609375 0.85147828125
vt 0.01820390625 0.85136328125
vt 0.0234375 0.937499921875
vt 0.42320234375 0.65234375
vt 0.41273515625 0.65234375
vt 0.41796875 0.646484375
vt 0.01820390625 0.85136328125
vt 0.02867109375 0.85136328125
vt 0.0234375 0.9375
vt 0.41273515625 0.6171875
vt 0.42320234375 0.6171875
vt 0.41796875 0.623046875
vt 0.29945390625 0.698821015625
vt 0.30992109375 0.698821015625
vt 0.3046875 0.742187421875
vt 0.40367109375 0.6187578125
vt 0.41273515625 0.6171875
vt 0.41796875 0.623046875
vt 0.30992109375 0.698821015625
vt 0.31911828125 0.6990492187499999
vt 0.3046875 0.74218734375
vt 0.3984375 0.6214765625
vt 0.40367109375 0.6187578125
vt 0.41796875 0.623046875
vt 0.31911828125 0.6990492187499999
vt 0.32499453125 0.699550859375
vt 0.304687421875 0.7421875
vt 0.3984375 0.6246171875
vt 0.3984375 0.6214765625
vt 0.41796875 0.623046875
vt 0.1351484375 0.51530078125
vt 0.1382890625 0.51530078125
vt 0.13671875 0.5625
vt 0.40367109375 0.6273359375
vt 0.3984375 0.6246171875
vt 0.41796875 0.623046875
vt 0.28438046875 0.754238359375
vt 0.29025671875 0.75373671875
vt 0.304687578125 0.796875
vt 0.41273515625 0.62890625
vt 0.40367109375 0.6273359375
vt 0.41796875 0.623046875
vt 0.29025671875 0.75373671875
vt 0.29945390625 0.753508515625
vt 0.3046875 0.79687484375
vt 0.42320234375 0.62890625
vt 0.41273515625 0.62890625
vt 0.41796875 0.623046875
vt 0.29945390625 0.753508515625
vt 0.30992109375 0.753508515625
vt 0.3046875 0.796874921875
vt 0.42320234375 0.6171875
vt 0.43226640625 0.6187578125
vt 0.41796875 0.623046875
vt 0.29025671875 0.6990492187499999
vt 0.29945390625 0.698821015625
vt 0.3046875 0.74218734375
vt 0.43226640625 0.6187578125
vt 0.4375 0.6214765625
vt 0.41796875 0.623046875
vt 0.28438046875 0.699550859375
vt 0.29025671875 0.6990492187499999
vt 0.304687578125 0.7421875
vt 0.4375 0.6214765625
vt 0.4375 0.6246171875
vt 0.41796875 0.623046875
vt 0.4320234375 0.56217578125
vt 0.4351640625 0.56217578125
vt 0.43359375 0.609375
vt 0.4375 0.6246171875
vt 0.43226640625 0.6273359375
vt 0.41796875 0.623046875
vt 0.31911828125 0.75373671875
vt 0.32499453125 0.754238359375
vt 0.304687421875 0.796875
vt 0.43226640625 0.6273359375
vt 0.42320234375 0.62890625
vt 0.41796875 0.623046875
vt 0.30992109375 0.753508515625
vt 0.31911828125 0.75373671875
vt 0.3046875 0.79687484375
vt 0.091796875 0.742098984375
vt 0.072265625 0.742098984375
vt 0.08203125 0.828124765625
vt 0.2476903125 0.857595625
vt 0.2132471875 0.864640859375
vt 0.2476903125 0.9453125
vt 0.419921875 0.9140625
vt 0.384765625 0.9140625
vt 0.392578125 0.921875
vt 0.412109375 0.921875
vt 0.072265625 0.742098984375
vt 0.063535 0.742380546875
vt 0.08203125 0.828125
vt 0.1005275 0.742380546875
vt 0.091796875 0.742098984375
vt 0.08203125 0.828125
vt 0.2578125 0.84375
vt 0.5078125 0.84375
vt 0.5078125 0.8359375
vt 0.2578125 0.8359375
vt 0.5078125 0.828125
vt 0.5078125 0.8203125
vt 0.2578125 0.8203125
vt 0.2578125 0.828125
vt 0.2578125 0.8671875
vt 0.2578125 0.875
vt 0.5078125 0.875
vt 0.5078125 0.8671875
vt 0.26125765625 1
vt 0.26999234375 1
vt 0.2664984375 0.993012265625
vt 0.026129296875 0.75
vt 0.01831703125 0.75390609375
vt 0.13012046875 0.977512890625
vt 0.137932734375 0.973606796875
vt 0.5078125 0.8046875
vt 0.2578125 0.8046875
vt 0.2578125 0.8125
vt 0.5078125 0.8125
vt 0.2578125 0.859375
vt 0.5078125 0.859375
vt 0.5078125 0.8515625
vt 0.2578125 0.8515625
vt 0.007400078125 0.930609609375
vt 0.007400078125 0.921875
vt 0.000412421875 0.92711578125
vt 0.34375 0.7890625
vt 0.3203125 0.7890625
vt 0.3203125 0.796875
vt 0.34375 0.796875
vt 0.3515625 0.921875
vt 0.3515625 0.9140625
vt 0.328125 0.9140625
vt 0.328125 0.921875
vt 0.109375 0.890625
vt 0.1328125 0.890625
vt 0.1328125 0.625
vt 0.109375 0.625
vt 0.521484375 0.90625
vt 0.521484375 0.8984375
vt 0.43383046875 0.8984375
vt 0.259765625 0.90625
vt 0.43383046875 0.8984375
vt 0.259765625 0.8984375
vt 0.259765625 0.90625
vt 0.142578125 0.6875
vt 0.142578125 0.86156484375
vt 0.162109375 0.86156484375
vt 0.162109375 0.6875
vt 0.162109375 0.86156484375
vt 0.142578125 0.86156484375
vt 0.142578125 0.94921875
vt 0.162109375 0.94921875
vt 0.34741953125 0.8828125
vt 0.259765625 0.8828125
vt 0.259765625 0.890625
vt 0.521484375 0.890625
vt 0.521484375 0.8828125
vt 0.34741953125 0.8828125
vt 0.521484375 0.890625
vt 0.5078125 0.875
vt 0.515625 0.87109375
vt 0.5078125 0.8671875
vt 0.13012046875 0.977512890625
vt 0.13793296875 0.981419140625
vt 0.13793296875 0.973606640625
vt 0.328125 0.4375
vt 0.328125 1
vt 0.171875 1
vt 0.171875 0.4375
vt 0.328125 0.4375
vt 0.328125 1
vt 0.171875 1
vt 0.171875 0.4375
vn 0 0 1
vn 0 0 1
vn 0 -1 0
vn 0 0 -1
vn 0 1 0
vn 0 -1 0
vn -0.49999238346988695 0 -0.8660298011454927
vn 0 1 0
vn 0 -1 0
vn -0.8660298011454927 0 -0.49999238346988695
vn 0 1 0
vn 0 -1 0
vn -1 0 0
vn 0 1 0
vn 0 -1 0
vn -0.8660298011454927 0 0.49999238346988695
vn 0 1 0
vn 0 -1 0
vn -0.49999238346988695 0 0.8660298011454927
vn 0 1 0
vn 0 -1 0
vn 0 0 1
vn 0 1 0
vn 0 -1 0
vn 0.49999238346988695 0 -0.8660298011454927
vn 0 1 0
vn 0 -1 0
vn 0.8660298011454927 0 -0.49999238346988695
vn 0 1 0
vn 0 -1 0
vn 1 0 0
vn 0 1 0
vn 0 -1 0
vn 0.8660298011454927 0 0.49999238346988695
vn 0 1 0
vn 0 -1 0
vn 0.49999238346988695 0 0.8660298011454927
vn 0 1 0
vn 0 1 0
vn -0.49478171161587103 -0.14430658141778047 0.8569519638871147
vn 0 1 0
vn -0.8569519638871146 -0.14430658141778052 0.494781711615871
vn 0 1 0
vn -0.9895329810632817 -0.1443068930717287 0
vn 0 1 0
vn -0.8569519638871146 -0.1443065814177805 -0.494781711615871
vn 0 1 0
vn -0.494781711615871 -0.14430658141778047 -0.8569519638871146
vn 0 1 0
vn 0 -0.1443068930717286 -0.9895329810632817
vn 0 1 0
vn 0.49478171161587103 -0.14430658141778033 -0.8569519638871147
vn 0 1 0
vn 0.8569519638871146 -0.14430658141778027 -0.494781711615871
vn 0 1 0
vn 0.9895329810632817 -0.14430689307172845 0
vn 0 1 0
vn 0.8569519638871146 -0.14430658141778027 0.494781711615871
vn 0 1 0
vn 0.49478171161587103 -0.14430658141778036 0.8569519638871147
vn 0 1 0
vn 0 -0.1443068930717286 0.9895329810632817
vn 0 1 0
vn 0 -0.04993761694389212 -0.9987523388778449
vn 0 -0.04993761694389235 0.9987523388778446
vn -0.9850304671557042 -0.17238033175224823 0
vn 0.9850304671557042 -0.17238033175224823 0
vn 0.9848077530122081 0.17364817766693055 0
vn -0.2944576132968028 0.9556645405012948 0
vn -0.06143061982523588 -0.010831875716833424 0.9980525784828886
vn -0.06143061982523588 -0.010831875716833424 -0.9980525784828888
vn 0.05015687676427545 -0.9987413517589294 0
vn -0.90630778703665 -0.4226182617406994 0
vn -0.27763895955238665 0.9606854886687257 0
vn 0.08459541113603825 0.03944748805750527 0.9956342260592882
vn 0.08459541113603822 0.03944748805750526 -0.9956342260592882
vn 0.5574648970131806 -0.830200511080356 0
vn -0.6755902076156616 -0.7372773368101229 0
vn -0.64778733822638 0.7618212155312963 0
vn 0.04214215929428762 0.045990096691271326 0.9980525784828888
vn 0.04214215929428762 0.045990096691271326 -0.9980525784828888
vn 0.8153806424117341 -0.5789252179515314 0
vn 0.90630778703665 -0.4226182617406994 0
vn 0.27763895955238665 0.9606854886687257 0
vn -0.08459541113603822 0.03944748805750526 0.9956342260592882
vn -0.08459541113603825 0.03944748805750527 -0.9956342260592882
vn -0.5574648970131806 -0.830200511080356 0
vn -0.9848077530122081 0.17364817766693055 0
vn 0.2944576132968028 0.9556645405012948 0
vn 0.06143061982523588 -0.010831875716833424 0.9980525784828888
vn 0.06143061982523588 -0.010831875716833424 -0.9980525784828886
vn -0.05015687676427545 -0.9987413517589294 0
vn 0.6755902076156616 -0.7372773368101229 0
vn 0.64778733822638 0.7618212155312963 0
vn -0.04214215929428762 0.045990096691271326 0.9980525784828888
vn -0.04214215929428762 0.045990096691271326 -0.9980525784828888
vn -0.8153806424117341 -0.5789252179515314 0
vn -1 0 0
vn 0 1 0
vn 0 -1 0
vn 0 0 1
vn 0 0 -1
vn -0.8944271909999161 0.44721359549995804 0
vn 0 0.44721359549995804 0.8944271909999161
vn 0 0.44721359549995804 -0.8944271909999161
vn -0.8944271909999161 -0.44721359549995804 0
vn 0 -0.44721359549995804 0.8944271909999161
vn 0 -0.44721359549995804 -0.8944271909999161
vn -0.7071067811865476 0 -0.7071067811865476
vn -0.7071067811865476 0 0.7071067811865476
vn -0.6666666666666666 -0.3333333333333333 0.6666666666666666
vn -0.6666666666666666 -0.3333333333333333 -0.6666666666666666
vn -0.6666666666666666 0.3333333333333333 0.6666666666666666
vn -0.6666666666666666 0.3333333333333333 -0.6666666666666666
vn 1 0 0
vn 0.8944271909999161 0.44721359549995804 0
vn 0.8944271909999161 -0.44721359549995804 0
vn 0.7071067811865476 0 -0.7071067811865476
vn 0.7071067811865476 0 0.7071067811865476
vn 0.6666666666666666 -0.3333333333333333 0.6666666666666666
vn 0.6666666666666666 -0.3333333333333333 -0.6666666666666666
vn 0.6666666666666666 0.3333333333333333 0.6666666666666666
vn 0.6666666666666666 0.3333333333333333 -0.6666666666666666
vn 0 0.045407660918649985 0.9989685402102997
vn 0 0 -1
vn 0 -1 0
vn -0.44535416690783747 0.09109517050387585 0.8907083338156749
vn 0.44535416690783747 0.09109517050387585 0.8907083338156749
vn 0 1 0
vn 0.4975210200042065 -0.09950368456995742 0.8617260883894466
vn 0 1 0
vn 0.8617260883894465 -0.09950368456995748 0.49752102000420667
vn 0 1 0
vn 0.9950371902099892 -0.09950371902099904 0
vn 0 1 0
vn 0.8617260883894465 -0.09950368456995748 -0.49752102000420667
vn 0 1 0
vn 0.4975210200042065 -0.09950368456995742 -0.8617260883894466
vn 0 1 0
vn 0 -0.09950371902099893 -0.9950371902099892
vn 0 1 0
vn -0.4975210200042065 -0.09950368456995731 -0.8617260883894466
vn 0 1 0
vn -0.8617260883894466 -0.09950368456995727 -0.4975210200042065
vn 0 1 0
vn -0.9950371902099892 -0.0995037190209988 0
vn 0 1 0
vn -0.8617260883894466 -0.09950368456995727 0.4975210200042065
vn 0 1 0
vn -0.4975210200042065 -0.09950368456995731 0.8617260883894466
vn 0 1 0
vn 0 -0.09950371902099893 0.9950371902099892
vn 0 1 0
vn -1.7675411182871222e-16 -0.09950371902099903 -0.9950371902099892
vn 0.9922778767136677 -0.12403473458920847 -2.2032994911073528e-16
vn -0.9922778767136677 -0.12403473458920847 2.2032994911073528e-16
vn 1.7675411182871222e-16 -0.09950371902099879 0.9950371902099892
vn 0 1 0
vn -0.17015042727987212 -0.07734203275697336 0.9823782581396517
vn 0 1 0
vn -0.45775051670260325 -0.12012795787917062 0.8809277712697449
vn 0 1 0
vn -0.9751328557914598 -0.22162110358896825 0
vn 0 1 0
vn -0.45775051670260325 -0.12012795787917062 -0.8809277712697449
vn 0 1 0
vn -0.17015042727987212 -0.07734203275697336 -0.9823782581396517
vn 0 1 0
vn 0 -0.06802388813737772 -0.9976836926815401
vn 0 1 0
vn 0.17015042727987212 -0.07734203275697334 -0.9823782581396517
vn 0 1 0
vn 0.4577505167026031 -0.12012795787917048 -0.880927771269745
vn 0 1 0
vn 0.9751328557914598 -0.221621103588968 0
vn 0 1 0
vn 0.4577505167026031 -0.12012795787917045 0.880927771269745
vn 0 1 0
vn 0.17015042727987212 -0.07734203275697334 0.9823782581396517
vn 0 1 0
vn 0 -0.06802388813737772 0.9976836926815401
vn 0 -1 0
vn 0 0.1351132047333135 -0.990830168044299
vn 0 -1 0
vn -0.168643966530235 0.1533145392834438 -0.9736805762657765
vn 0 -1 0
vn -0.44815254532387966 0.23521830396135485 -0.8624567499888166
vn 0 -1 0
vn -0.9103664774626049 0.41380294430118403 0
vn 0 -1 0
vn -0.44815254532387966 0.23521830396135485 0.8624567499888166
vn 0 -1 0
vn -0.168643966530235 0.1533145392834438 0.9736805762657765
vn 0 -1 0
vn 0 0.1351132047333135 0.990830168044299
vn 0 -1 0
vn 0.168643966530235 0.1533145392834438 -0.9736805762657765
vn 0 -1 0
vn 0.44815254532387966 0.23521830396135485 -0.8624567499888166
vn 0 -1 0
vn 0.9103664774626049 0.41380294430118403 0
vn 0 -1 0
vn 0.44815254532387966 0.23521830396135485 0.8624567499888166
vn 0 -1 0
vn 0.168643966530235 0.1533145392834438 0.9736805762657765
vn -1.1090778742176562e-16 0.04540766091864998 -0.9989685402102997
vn 1.2246467991473532e-16 0 1
vn 0 -1 0
vn -0.4453541669078375 0.09109517050387585 -0.8907083338156749
vn 0.4453541669078374 0.09109517050387585 -0.890708333815675
vn -0.44721359549995804 -9.930136612989094e-17 0.8944271909999161
vn -0.44721359549995804 2.979040983896728e-16 -0.8944271909999161
vn 1 -2.220446049250313e-16 0
vn 0 -1 0
vn 0.44721359549995804 -2.979040983896728e-16 0.8944271909999161
vn 0.44721359549995804 9.930136612989094e-17 -0.8944271909999161
vn -1 2.220446049250313e-16 0
vn 0 -1 0
vn 0 1 0
vn 0 -1 0
vn 0 2.1210230918211945e-16 -1
vn 1 -2.176971920007758e-16 0
vn 1 -2.292167985517145e-16 0
vn 0 -2.1925085078859645e-16 1
vn 0 -2.3748784581902816e-16 1
vn -1 2.176971920007758e-16 0
vn -1 2.292167985517145e-16 0
vn 0 1 0
vn 0 1 0
vn 0 0 1
vn 0 0 1
usemtl m_6ec2d8d6-b2c4-efa5-b4cb-c7150950ab72
f 18/49/13 17/50/13 19/51/13 20/52/13
f 18/53/14 17/54/14 19/55/14 20/56/14
usemtl m_3e34c4ba-a3ca-3260-00dc-354e1446544b
f 23/57/15 35/58/15 21/59/15
f 35/60/16 23/61/16 24/62/16 36/63/16
f 36/64/17 24/65/17 22/66/17
f 25/67/18 23/68/18 21/69/18
f 23/70/19 25/71/19 26/72/19 24/73/19
f 24/74/20 26/75/20 22/76/20
f 27/77/21 25/78/21 21/79/21
f 25/80/22 27/81/22 28/82/22 26/83/22
f 26/84/23 28/85/23 22/86/23
f 29/87/24 27/88/24 21/89/24
f 27/90/25 29/91/25 30/92/25 28/93/25
f 28/94/26 30/95/26 22/96/26
f 31/97/27 29/98/27 21/99/27
f 29/100/28 31/101/28 32/102/28 30/103/28
f 30/104/29 32/105/29 22/106/29
f 33/107/30 31/108/30 21/109/30
f 31/110/31 33/111/31 34/112/31 32/113/31
f 32/114/32 34/115/32 22/116/32
f 45/117/33 33/118/33 21/119/33
f 33/120/34 45/121/34 46/122/34 34/123/34
f 34/124/35 46/125/35 22/126/35
f 35/127/36 37/128/36 21/129/36
f 38/130/37 37/131/37 35/132/37 36/133/37
f 38/134/38 36/135/38 22/136/38
f 37/137/39 39/138/39 21/139/39
f 40/140/40 39/141/40 37/142/40 38/143/40
f 40/144/41 38/145/41 22/146/41
f 39/147/42 41/148/42 21/149/42
f 42/150/43 41/151/43 39/152/43 40/153/43
f 42/154/44 40/155/44 22/156/44
f 41/157/45 43/158/45 21/159/45
f 44/160/46 43/161/46 41/162/46 42/163/46
f 44/164/47 42/165/47 22/166/47
f 43/167/48 45/168/48 21/169/48
f 46/170/49 45/171/49 43/172/49 44/173/49
f 46/174/50 44/175/50 22/176/50
f 50/177/51 49/178/51 47/179/51
f 49/180/52 50/181/52 48/182/52
f 51/183/53 50/184/53 47/185/53
f 50/186/54 51/187/54 48/188/54
f 52/189/55 51/190/55 47/191/55
f 51/192/56 52/193/56 48/194/56
f 53/195/57 52/196/57 47/197/57
f 52/198/58 53/199/58 48/200/58
f 54/201/59 53/202/59 47/203/59
f 53/204/60 54/205/60 48/206/60
f 55/207/61 54/208/61 47/209/61
f 54/210/62 55/211/62 48/212/62
f 56/213/63 55/214/63 47/215/63
f 55/216/64 56/217/64 48/218/64
f 57/219/65 56/220/65 47/221/65
f 56/222/66 57/223/66 48/224/66
f 58/225/67 57/226/67 47/227/67
f 57/228/68 58/229/68 48/230/68
f 59/231/69 58/232/69 47/233/69
f 58/234/70 59/235/70 48/236/70
f 60/237/71 59/238/71 47/239/71
f 59/240/72 60/241/72 48/242/72
f 49/243/73 60/244/73 47/245/73
f 60/246/74 49/247/74 48/248/74
f 65/249/75 64/250/75 62/251/75 63/252/75
f 62/253/76 64/254/76 61/255/76
f 65/256/77 63/257/77 61/258/77
f 63/259/78 62/260/78 61/261/78
f 64/262/79 65/263/79 61/264/79
f 68/265/80 67/266/80 69/267/80 70/268/80
f 67/269/81 68/270/81 66/271/81
f 69/272/82 67/273/82 66/274/82
f 68/275/83 70/276/83 66/277/83
f 70/278/84 69/279/84 66/280/84
f 74/281/85 72/282/85 73/283/85 75/284/85
f 73/285/86 72/286/86 71/287/86
f 72/288/87 74/289/87 71/290/87
f 75/291/88 73/292/88 71/293/88
f 74/294/89 75/295/89 71/296/89
f 79/297/90 77/298/90 78/299/90 80/300/90
f 78/301/91 77/302/91 76/303/91
f 77/304/92 79/305/92 76/306/92
f 80/307/93 78/308/93 76/309/93
f 79/310/94 80/311/94 76/312/94
f 83/313/95 82/314/95 84/315/95 85/316/95
f 82/317/96 83/318/96 81/319/96
f 84/320/97 82/321/97 81/322/97
f 83/323/98 85/324/98 81/325/98
f 85/326/99 84/327/99 81/328/99
f 89/329/100 87/330/100 88/331/100 90/332/100
f 88/333/101 87/334/101 86/335/101
f 87/336/102 89/337/102 86/338/102
f 90/339/103 88/340/103 86/341/103
f 89/342/104 90/343/104 86/344/104
f 93/345/105 92/346/105 94/347/105 95/348/105
f 92/349/106 93/350/106 91/351/106
f 94/352/107 92/353/107 91/354/107
f 93/355/108 95/356/108 91/357/108
f 95/358/109 94/359/109 91/360/109
f 100/361/110 101/362/110 103/363/110 102/364/110
f 108/365/111 109/366/111 97/367/111 96/368/111
f 99/369/112 111/370/112 110/371/112 98/372/112
f 118/373/113 119/374/113 107/375/113 106/376/113
f 105/377/114 117/378/114 116/379/114 104/380/114
f 101/381/115 96/382/115 97/383/115 103/384/115
f 119/385/116 108/386/116 96/387/116 107/388/116
f 97/389/117 109/390/117 117/391/117 105/392/117
f 99/393/118 98/394/118 100/395/118 102/396/118
f 98/397/119 110/398/119 118/399/119 106/400/119
f 116/401/120 111/402/120 99/403/120 104/404/120
f 105/405/121 104/406/121 102/407/121 103/408/121
f 100/409/122 106/410/122 107/411/122 101/412/122
f 98/413/123 106/414/123 100/415/123
f 99/416/124 102/417/124 104/418/124
f 96/419/125 101/420/125 107/421/125
f 97/422/126 105/423/126 103/424/126
f 115/425/127 113/426/127 112/427/127 114/428/127
f 109/429/128 108/430/128 113/431/128 115/432/128
f 112/433/129 110/434/129 111/435/129 114/436/129
f 114/437/130 116/438/130 117/439/130 115/440/130
f 119/441/131 118/442/131 112/443/131 113/444/131
f 118/445/132 110/446/132 112/447/132
f 114/448/133 111/449/133 116/450/133
f 113/451/134 108/452/134 119/453/134
f 117/454/135 109/455/135 115/456/135
f 121/457/136 123/458/136 120/459/136
f 124/460/137 122/461/137 120/462/137
f 122/463/138 124/464/138 123/465/138 121/466/138
f 122/467/139 121/468/139 120/469/139
f 123/470/140 124/471/140 120/472/140
f 127/473/141 128/474/141 125/475/141
f 128/476/142 127/477/142 126/478/142
f 128/479/143 129/480/143 125/481/143
f 129/482/144 128/483/144 126/484/144
f 129/485/145 130/486/145 125/487/145
f 130/488/146 129/489/146 126/490/146
f 130/491/147 131/492/147 125/493/147
f 131/494/148 130/495/148 126/496/148
f 131/497/149 132/498/149 125/499/149
f 132/500/150 131/501/150 126/502/150
f 132/503/151 133/504/151 125/505/151
f 133/506/152 132/507/152 126/508/152
f 133/509/153 134/510/153 125/511/153
f 134/512/154 133/513/154 126/514/154
f 134/515/155 135/516/155 125/517/155
f 135/518/156 134/519/156 126/520/156
f 135/521/157 136/522/157 125/523/157
f 136/524/158 135/525/158 126/526/158
f 136/527/159 137/528/159 125/529/159
f 137/530/160 136/531/160 126/532/160
f 137/533/161 138/534/161 125/535/161
f 138/536/162 137/537/162 126/538/162
f 138/539/163 127/540/163 125/541/163
f 127/542/164 138/543/164 126/544/164
f 142/545/165 140/546/165 141/547/165 143/548/165
f 141/549/166 140/550/166 139/551/166
f 140/552/167 142/553/167 139/554/167
f 143/555/168 141/556/168 139/557/168
f 142/558/169 143/559/169 139/560/169
f 147/561/170 146/562/170 144/563/170
f 146/564/171 147/565/171 145/566/171
f 148/567/172 147/568/172 144/569/172
f 147/570/173 148/571/173 145/572/173
f 149/573/174 148/574/174 144/575/174
f 148/576/175 149/577/175 145/578/175
f 150/579/176 149/580/176 144/581/176
f 149/582/177 150/583/177 145/584/177
f 151/585/178 150/586/178 144/587/178
f 150/588/179 151/589/179 145/590/179
f 152/591/180 151/592/180 144/593/180
f 151/594/181 152/595/181 145/596/181
f 153/597/182 152/598/182 144/599/182
f 152/600/183 153/601/183 145/602/183
f 154/603/184 153/604/184 144/605/184
f 153/606/185 154/607/185 145/608/185
f 155/609/186 154/610/186 144/611/186
f 154/612/187 155/613/187 145/614/187
f 156/615/188 155/616/188 144/617/188
f 155/618/189 156/619/189 145/620/189
f 157/621/190 156/622/190 144/623/190
f 156/624/191 157/625/191 145/626/191
f 146/627/192 157/628/192 144/629/192
f 157/630/193 146/631/193 145/632/193
f 160/633/194 166/634/194 158/635/194
f 166/636/195 160/637/195 159/638/195
f 161/639/196 160/640/196 158/641/196
f 160/642/197 161/643/197 159/644/197
f 162/645/198 161/646/198 158/647/198
f 161/648/199 162/649/199 159/650/199
f 163/651/200 162/652/200 158/653/200
f 162/654/201 163/655/201 159/656/201
f 164/657/202 163/658/202 158/659/202
f 163/660/203 164/661/203 159/662/203
f 165/663/204 164/664/204 158/665/204
f 164/666/205 165/667/205 159/668/205
f 171/669/206 165/670/206 158/671/206
f 165/672/207 171/673/207 159/674/207
f 166/675/208 167/676/208 158/677/208
f 167/678/209 166/679/209 159/680/209
f 167/681/210 168/682/210 158/683/210
f 168/684/211 167/685/211 159/686/211
f 168/687/212 169/688/212 158/689/212
f 169/690/213 168/691/213 159/692/213
f 169/693/214 170/694/214 158/695/214
f 170/696/215 169/697/215 159/698/215
f 170/699/216 171/700/216 158/701/216
f 171/702/217 170/703/217 159/704/217
f 175/705/218 173/706/218 172/707/218
f 174/708/219 176/709/219 172/710/219
f 176/711/220 174/712/220 173/713/220 175/714/220
f 173/715/221 174/716/221 172/717/221
f 176/718/222 175/719/222 172/720/222
f 180/721/223 178/722/223 179/723/223 196/724/223
f 177/725/224 178/726/224 180/727/224 195/728/224
f 179/729/225 177/730/225 195/731/225 196/732/225
f 178/733/226 177/734/226 179/735/226
f 183/736/227 182/737/227 197/738/227 198/739/227
f 197/740/228 182/741/228 181/742/228 184/743/228
f 184/744/229 181/745/229 183/746/229 198/747/229
f 181/748/230 182/749/230 183/750/230
f 189/751/231 194/752/231 185/753/231 190/754/231
f 187/755/232 186/756/232 191/757/232 192/758/232
f 190/759/233 185/760/233 187/761/233 192/762/233
f 185/763/234 194/764/234 188/765/234 187/766/234
f 188/767/235 186/768/235 187/769/235
f 186/770/236 188/771/236 193/772/236 191/773/236
f 193/774/237 188/775/237 194/776/237 189/777/237
f 193/778/238 189/779/238 190/780/238 192/781/238
f 191/782/239 193/783/239 192/784/239
f 195/785/240 180/786/240 196/787/240
f 197/788/241 184/789/241 198/790/241
usemtl m_6ec2d8d6-b2c4-efa5-b4cb-c7150950ab72
f 200/791/242 199/792/242 201/793/242 202/794/242
f 200/795/243 199/796/243 201/797/243 202/798/243