# Made in Blockbench 5.1.5
mtllib iudex_halberd.mtl

o cube
v -0.1139375 2.4376249999999997 0.0391875
v -0.1139375 2.4376249999999997 -0.0391875
v -0.1139375 -1.0001249999999997 0.0391875
v -0.1139375 -1.0001249999999997 -0.0391875
v -0.18918749999999998 2.4376249999999997 0.0391875
v -0.18918749999999998 2.4376249999999997 -0.0391875
v -0.18918749999999998 -1.0001249999999997 0.0391875
v -0.18918749999999998 -1.0001249999999997 -0.0391875
v 0.1540299859663768 2.112043961264433 0.015625
v 0.1540299859663768 2.112043961264433 -0.015625
v 0.09314175429634813 1.678801681189996 0.015625
v 0.09314175429634813 1.678801681189996 -0.015625
v 0.03024647737368047 2.1294405988844414 0.015625
v 0.03024647737368047 2.1294405988844414 -0.015625
v -0.030641754296348134 1.696198318810004 0.015625
v -0.030641754296348134 1.696198318810004 -0.015625
v 0.18444825738564813 2.4231857805516923 0.01575
v 0.18444825738564813 2.4231857805516923 -0.01575
v 0.15414216527606422 2.1119076038655558 0.01575
v 0.15414216527606422 2.1119076038655558 -0.01575
v -0.09417183721411278 2.4503122766665655 0.01575
v -0.09417183721411278 2.4503122766665655 -0.01575
v -0.12447792932369675 2.139034099980429 0.01575
v -0.12447792932369675 2.139034099980429 -0.01575
v 0.12106467986262542 2.7292337552720056 0.014187499999999999
v 0.12106467986262542 2.7292337552720056 -0.01575
v 0.18445968072097024 2.422976287826442 0.014187499999999999
v 0.18445968072097024 2.422976287826442 -0.01575
v -0.14694120541797467 2.6737567950884142 0.014187499999999999
v -0.14694120541797467 2.6737567950884142 -0.01575
v -0.08354620455962986 2.36749932764285 0.014187499999999999
v -0.08354620455962986 2.36749932764285 -0.01575
v -0.2623112342686733 2.788683494093925 0.0110625
v -0.2623112342686733 2.788683494093925 -0.01575
v -0.10432689329882491 2.7837133920252652 0.0110625
v -0.10432689329882491 2.7837133920252652 -0.01575
v -0.2689517937348661 2.5776004224699176 0.0110625
v -0.2689517937348661 2.5776004224699176 -0.01575
v -0.11096745276501768 2.5726303204012577 0.0110625
v -0.11096745276501768 2.5726303204012577 -0.01575
v -0.26214370370254325 3.0550192335212794 0.0102125
v -0.26214370370254325 3.0550192335212794 -0.016350000000000003
v -0.13956648665998442 3.0305278909263658 0.0102125
v -0.13956648665998442 3.0305278909263658 -0.016350000000000003
v -0.3111263888923702 2.809864799436162 0.0102125
v -0.3111263888923702 2.809864799436162 -0.016350000000000003
v -0.18854917184981135 2.7853734568412483 0.0102125
v -0.18854917184981135 2.7853734568412483 -0.016350000000000003
v -0.18911121979791778 3.1043413577074785 0.0103375
v -0.18911121979791778 3.1043413577074785 -0.016475000000000004
v -0.13939235365677605 3.0304959033151815 0.0103375
v -0.13939235365677605 3.0304959033151815 -0.016475000000000004
v -0.2623169156252347 3.055053229933602 0.0103375
v -0.2623169156252347 3.055053229933602 -0.016475000000000004
v -0.21259804948409294 2.981207775541305 0.0103375
v -0.21259804948409294 2.981207775541305 -0.016475000000000004
v -0.31112670489197297 2.809864793888971 0.0102125
v -0.31112670489197297 2.809864793888971 -0.016350000000000003
v -0.26495592197524453 2.8179595100579506 0.0102125
v -0.26495592197524453 2.8179595100579506 -0.016350000000000003
v -0.2703833001747751 2.5774718532081047 0.0102125
v -0.2703833001747751 2.5774718532081047 -0.016350000000000003
v -0.2242125172580467 2.5855665693770846 0.0102125
v -0.2242125172580467 2.5855665693770846 -0.016350000000000003
v -0.09666106455374124 2.8717393196758736 0.012561249999999998
v -0.09666106455374124 2.8717393196758736 -0.015563749999999998
v -0.13122999679634004 2.8503996957661926 0.012561249999999998
v -0.13122999679634004 2.8503996957661926 -0.015563749999999998
v -0.15411389815672888 2.964809521867485 0.012561249999999998
v -0.15411389815672888 2.964809521867485 -0.015563749999999998
v -0.1886828303993277 2.943469897957804 0.012561249999999998
v -0.1886828303993277 2.943469897957804 -0.015563749999999998
v 0.12114079420837337 2.729121475493921 0.012625
v 0.12114079420837337 2.729121475493921 -0.01575
v 0.02145158841512726 2.5774497502175464 0.012625
v 0.02145158841512726 2.5774497502175464 -0.01575
v -0.19243945322941944 2.9352282219066783 0.012625
v -0.19243945322941944 2.9352282219066783 -0.01575
v -0.2921286590226655 2.7835564966303035 0.012625
v -0.2921286590226655 2.7835564966303035 -0.01575
v 0.12324558299576627 2.096962074386021 -0.0032
v 0.12324558299576627 2.096962074386021 -0.0032
v 0.06443569635356167 1.9866606816788976 -0.0032
v 0.06443569635356167 1.9866606816788976 -0.0032
v -0.09735720241848035 2.21458184767043 -0.0032
v -0.09735720241848035 2.21458184767043 -0.0032
v -0.156167089060685 2.1042804549633067 -0.0032
v -0.156167089060685 2.1042804549633067 -0.0032
v 0.09314160354996331 1.6788019921711288 0.015625
v 0.09314160354996331 1.6788019921711288 -0.015625
v -0.08999048333218732 1.146947793396513 0.015625
v -0.08999048333218732 1.146947793396513 -0.015625
v -0.025048218399951278 1.7194980114782734 0.015625
v -0.025048218399951278 1.7194980114782734 -0.015625
v -0.2081803052821019 1.1876438127036577 0.015625
v -0.2081803052821019 1.1876438127036577 -0.015625
v -0.06706249999999998 1.437625 0.0548125
v -0.06706249999999998 1.437625 -0.0548125
v -0.06706249999999998 1.0155 0.0548125
v -0.06706249999999998 1.0155 -0.0548125
v -0.2360625 1.437625 0.0548125
v -0.2360625 1.437625 -0.0548125
v -0.2360625 1.0155 0.0548125
v -0.2360625 1.0155 -0.0548125
v -0.06706250000000001 2.4485625 0.0454375
v -0.06706250000000001 2.4485625 -0.0454375
v -0.06706250000000001 2.2076875 0.0454375
v -0.06706250000000001 2.2076875 -0.0454375
v -0.200125 2.4485625 0.0454375
v -0.200125 2.4485625 -0.0454375
v -0.200125 2.2076875 0.0454375
v -0.200125 2.2076875 -0.0454375
vt 0.0234375 0.140625
vt 0.0234375 1
vt 0 1
vt 0 0.140625
vt 0.0546875 0.140625
vt 0.0546875 1
vt 0.03125 1
vt 0.03125 0.140625
vt 0.296875 0.640625
vt 0.296875 0.6171875
vt 0.3125 0.6171875
vt 0.3125 0.640625
vt 0.09375 0.6015625
vt 0.09375 0.625
vt 0.109375 0.625
vt 0.109375 0.6015625
vt 0.09375 0.140625
vt 0.09375 1
vt 0.078125 1
vt 0.078125 0.140625
vt 0.078125 0.140625
vt 0.078125 1
vt 0.0625 1
vt 0.0625 0.140625
vt 0.3515625 0.6875
vt 0.3515625 0.796875
vt 0.34375 0.796875
vt 0.34375 0.6875
vt 0.2421875 0.546875
vt 0.2421875 0.65625
vt 0.234375 0.65625
vt 0.234375 0.546875
vt 0.375 0.859375
vt 0.375 0.8515625
vt 0.40625 0.8515625
vt 0.40625 0.859375
vt 0.375 0.8359375
vt 0.375 0.84375
vt 0.40625 0.84375
vt 0.40625 0.8359375
vt 0.296875 0.890625
vt 0.296875 1
vt 0.265625 1
vt 0.265625 0.890625
vt 0.171875 0.65625
vt 0.171875 0.765625
vt 0.140625 0.765625
vt 0.140625 0.65625
vt 0.2578125 0.921875
vt 0.2578125 1
vt 0.25 1
vt 0.25 0.921875
vt 0.2578125 0.578125
vt 0.2578125 0.65625
vt 0.25 0.65625
vt 0.25 0.578125
vt 0.359375 0.96875
vt 0.359375 0.9609375
vt 0.4296875 0.9609375
vt 0.4296875 0.96875
vt 0.359375 0.9453125
vt 0.359375 0.953125
vt 0.4296875 0.953125
vt 0.4296875 0.9453125
vt 0.1640625 0.84375
vt 0.1640625 0.921875
vt 0.09375 0.921875
vt 0.09375 0.84375
vt 0.1640625 0.921875
vt 0.1640625 1
vt 0.09375 1
vt 0.09375 0.921875
vt 0.1796875 0.5625
vt 0.1796875 0.640625
vt 0.171875 0.640625
vt 0.171875 0.5625
vt 0.1953125 0.5625
vt 0.1953125 0.640625
vt 0.1875 0.640625
vt 0.1875 0.5625
vt 0.359375 0.9375
vt 0.359375 0.9296875
vt 0.4296875 0.9296875
vt 0.4296875 0.9375
vt 0.359375 0.9140625
vt 0.359375 0.921875
vt 0.4296875 0.921875
vt 0.4296875 0.9140625
vt 0.2421875 0.921875
vt 0.2421875 1
vt 0.171875 1
vt 0.171875 0.921875
vt 0.1640625 0.765625
vt 0.1640625 0.84375
vt 0.09375 0.84375
vt 0.09375 0.765625
vt 0.1171875 0.5859375
vt 0.1171875 0.625
vt 0.109375 0.625
vt 0.109375 0.5859375
vt 0.1328125 0.5859375
vt 0.1328125 0.625
vt 0.125 0.625
vt 0.125 0.5859375
vt 0.375 0.890625
vt 0.375 0.8828125
vt 0.4296875 0.8828125
vt 0.4296875 0.890625
vt 0.375 0.8671875
vt 0.375 0.875
vt 0.4296875 0.875
vt 0.4296875 0.8671875
vt 0.3515625 0.9140625
vt 0.3515625 0.953125
vt 0.296875 0.953125
vt 0.296875 0.9140625
vt 0.3515625 0.9609375
vt 0.3515625 1
vt 0.296875 1
vt 0.296875 0.9609375
vt 0.3203125 0.59375
vt 0.3203125 0.625
vt 0.3125 0.625
vt 0.3125 0.59375
vt 0.3359375 0.59375
vt 0.3359375 0.625
vt 0.328125 0.625
vt 0.328125 0.59375
vt 0.359375 0.734375
vt 0.359375 0.7265625
vt 0.421875 0.7265625
vt 0.421875 0.734375
vt 0.359375 0.7109375
vt 0.359375 0.71875
vt 0.421875 0.71875
vt 0.421875 0.7109375
vt 0.375 0.84375
vt 0.375 0.875
vt 0.3125 0.875
vt 0.3125 0.84375
vt 0.375 0.875
vt 0.375 0.90625
vt 0.3125 0.90625
vt 0.3125 0.875
vt 0.2109375 0.5859375
vt 0.2109375 0.609375
vt 0.203125 0.609375
vt 0.203125 0.5859375
vt 0.3984375 0.7734375
vt 0.3984375 0.796875
vt 0.390625 0.796875
vt 0.390625 0.7734375
vt 0.390625 0.765625
vt 0.390625 0.7578125
vt 0.4140625 0.7578125
vt 0.4140625 0.765625
vt 0.390625 0.7421875
vt 0.390625 0.75
vt 0.4140625 0.75
vt 0.4140625 0.7421875
vt 0.2890625 0.6171875
vt 0.2890625 0.640625
vt 0.265625 0.640625
vt 0.265625 0.6171875
vt 0.3828125 0.7421875
vt 0.3828125 0.765625
vt 0.359375 0.765625
vt 0.359375 0.7421875
vt 0.2734375 0.828125
vt 0.2734375 0.84375
vt 0.265625 0.84375
vt 0.265625 0.828125
vt 0.3046875 0.890625
vt 0.3046875 0.90625
vt 0.296875 0.90625
vt 0.296875 0.890625
vt 0.359375 0.703125
vt 0.359375 0.6953125
vt 0.421875 0.6953125
vt 0.421875 0.703125
vt 0.375 0.8984375
vt 0.375 0.90625
vt 0.4375 0.90625
vt 0.4375 0.8984375
vt 0.40625 0.796875
vt 0.40625 0.8125
vt 0.34375 0.8125
vt 0.34375 0.796875
vt 0.234375 0.640625
vt 0.234375 0.65625
vt 0.171875 0.65625
vt 0.171875 0.640625
vt 0.2734375 0.84375
vt 0.2734375 0.890625
vt 0.265625 0.890625
vt 0.265625 0.84375
vt 0.2734375 0.671875
vt 0.2734375 0.71875
vt 0.265625 0.71875
vt 0.265625 0.671875
vt 0.375 0.578125
vt 0.375 0.5703125
vt 0.46875 0.5703125
vt 0.46875 0.578125
vt 0.375 0.5546875
vt 0.375 0.5625
vt 0.46875 0.5625
vt 0.46875 0.5546875
vt 0.3671875 0.4765625
vt 0.3671875 0.5234375
vt 0.2734375 0.5234375
vt 0.2734375 0.4765625
vt 0.3671875 0.53125
vt 0.3671875 0.578125
vt 0.2734375 0.578125
vt 0.2734375 0.53125
vt 0.2734375 0.84375
vt 0.2734375 0.890625
vt 0.265625 0.890625
vt 0.265625 0.84375
vt 0.2734375 0.671875
vt 0.2734375 0.71875
vt 0.265625 0.71875
vt 0.265625 0.671875
vt 0.34375 0.6875
vt 0.34375 0.6796875
vt 0.4375 0.6796875
vt 0.4375 0.6875
vt 0.34375 0.6640625
vt 0.34375 0.671875
vt 0.4375 0.671875
vt 0.4375 0.6640625
vt 0.265625 0.828125
vt 0.265625 0.875
vt 0.171875 0.875
vt 0.171875 0.828125
vt 0.265625 0.875
vt 0.265625 0.921875
vt 0.171875 0.921875
vt 0.171875 0.875
vt 0 1
vt 0 1
vt 0 0.96875
vt 0 0.96875
vt 0 1
vt 0 1
vt 0 0.96875
vt 0 0.96875
vt 0 1
vt 0.0625 1
vt 0 1
vt 0.0625 1
vt 0 1
vt 0.0625 1
vt 0 1
vt 0.0625 1
vt 0.234375 0.65625
vt 0.234375 0.6875
vt 0.171875 0.6875
vt 0.171875 0.65625
vt 0.375 0.8125
vt 0.375 0.84375
vt 0.3125 0.84375
vt 0.3125 0.8125
vt 0.1484375 0.515625
vt 0.1484375 0.65625
vt 0.140625 0.65625
vt 0.140625 0.515625
vt 0.1640625 0.515625
vt 0.1640625 0.65625
vt 0.15625 0.65625
vt 0.15625 0.515625
vt 0.375 0.828125
vt 0.375 0.8203125
vt 0.40625 0.8203125
vt 0.40625 0.828125
vt 0.34375 0.6171875
vt 0.34375 0.625
vt 0.375 0.625
vt 0.375 0.6171875
vt 0.234375 0.6875
vt 0.234375 0.828125
vt 0.203125 0.828125
vt 0.203125 0.6875
vt 0.203125 0.6875
vt 0.203125 0.828125
vt 0.171875 0.828125
vt 0.171875 0.6875
vt 0.3125 0.78125
vt 0.3125 0.890625
vt 0.28125 0.890625
vt 0.28125 0.78125
vt 0.3125 0.671875
vt 0.3125 0.78125
vt 0.28125 0.78125
vt 0.28125 0.671875
vt 0.265625 0.671875
vt 0.265625 0.640625
vt 0.3046875 0.640625
vt 0.3046875 0.671875
vt 0.09375 0.625
vt 0.09375 0.65625
vt 0.1328125 0.65625
vt 0.1328125 0.625
vt 0.2734375 0.71875
vt 0.2734375 0.828125
vt 0.234375 0.828125
vt 0.234375 0.71875
vt 0.1328125 0.65625
vt 0.1328125 0.765625
vt 0.09375 0.765625
vt 0.09375 0.65625
vt 0.3359375 0.6875
vt 0.3359375 0.75
vt 0.3125 0.75
vt 0.3125 0.6875
vt 0.3359375 0.625
vt 0.3359375 0.6875
vt 0.3125 0.6875
vt 0.3125 0.625
vt 0.34375 0.65625
vt 0.34375 0.6328125
vt 0.375 0.6328125
vt 0.375 0.65625
vt 0.359375 0.9765625
vt 0.359375 1
vt 0.390625 1
vt 0.390625 0.9765625
vt 0.34375 0.75
vt 0.34375 0.8125
vt 0.3125 0.8125
vt 0.3125 0.75
vt 0.265625 0.65625
vt 0.265625 0.71875
vt 0.234375 0.71875
vt 0.234375 0.65625
vn 1 0 0
vn -1 0 0
vn 0 1 0
vn 0 -1 0
vn 0 0 1
vn 0 0 -1
vn 0.9902680687415705 -0.13917310096006558 0
vn -0.9902680687415705 0.1391731009600653 0
vn 0.1391731009600682 0.9902680687415699 0
vn -0.1391731009600648 -0.9902680687415705 0
vn 0 0 1
vn 0 0 -1
vn 0.9952939302514346 -0.09690197317213067 0
vn -0.9952939302514346 0.09690197317213091 0
vn 0.09690197317213015 0.9952939302514348 0
vn -0.0969019731721301 -0.9952939302514348 0
vn 0 0 1
vn 0 0 -1
vn 0.9792405034230651 0.2027018412736845 0
vn -0.9792405034230653 -0.20270184127368426 0
vn -0.202701841273684 0.9792405034230652 0
vn 0.2027018412736856 -0.979240503423065 0
vn 0 0 1
vn 0 0 -1
vn 0.03144390395356183 0.9995055181959523 0
vn -0.03144390395356182 -0.9995055181959523 0
vn -0.9995055181959523 0.031443903953561655 0
vn 0.9995055181959523 -0.031443903953561524 0
vn 0 0 1
vn 0 0 -1
vn 0.1959307407593087 0.9806177363404706 0
vn -0.19593074075930864 -0.9806177363404706 0
vn -0.9806177363404707 0.19593074075930797 0
vn 0.9806177363404709 -0.1959307407593079 0
vn 0 0 1
vn 0 0 -1
vn 0.8295086742045642 0.5584938311381659 0
vn -0.8295086742045642 -0.5584938311381659 0
vn -0.5584938311381665 0.8295086742045638 0
vn 0.5584938311381665 -0.8295086742045638 0
vn 0 0 1
vn 0 0 -1
vn -0.1726872782715626 0.9849767022235398 0
vn 0.17268727827157204 -0.9849767022235383 0
vn -0.9849767022235391 -0.17268727827156707 0
vn 0.9849767022235391 0.17268727827156719 0
vn 0 0 1
vn 0 0 -1
vn 0.5252830500844534 -0.8509275628947355 0
vn -0.5252830500844531 0.8509275628947355 0
vn 0.8509275628947325 0.525283050084458 0
vn -0.8509275628947324 -0.5252830500844581 0
vn 0 0 1
vn 0 0 -1
vn 0.8356568885750637 -0.5492518225523189 0
vn -0.8356568885750644 0.5492518225523175 0
vn 0.5492518225523184 0.8356568885750638 0
vn -0.5492518225523175 -0.8356568885750644 0
vn 0 0 1
vn 0 0 -1
vn 0 0 0
vn 0 0 0
vn 0 0 0
vn 0 0 0
vn 0 0 1
vn 0 0 -1
vn 0.9455185755993168 -0.3255681544571567 0
vn -0.9455185755993168 0.3255681544571567 0
vn 0.3255681544571569 0.9455185755993167 0
vn -0.3255681544571569 -0.9455185755993167 0
vn 0 0 1
vn 0 0 -1
vn 1 0 0
vn -1 0 0
vn 0 1 0
vn 0 -1 0
vn 0 0 1
vn 0 0 -1
vn 1 0 0
vn -1 0 0
vn 0 1 0
vn 0 -1 0
vn 0 0 1
vn 0 0 -1
usemtl m_391c9573-35eb-d0dd-6564-0c2da27d593d
f 4/1/1 2/2/1 1/3/1 3/4/1
f 7/5/2 5/6/2 6/7/2 8/8/2
f 1/9/3 2/10/3 6/11/3 5/12/3
f 4/13/4 3/14/4 7/15/4 8/16/4
f 3/17/5 1/18/5 5/19/5 7/20/5
f 8/21/6 6/22/6 2/23/6 4/24/6
f 12/25/7 10/26/7 9/27/7 11/28/7
f 15/29/8 13/30/8 14/31/8 16/32/8
f 9/33/9 10/34/9 14/35/9 13/36/9
f 12/37/10 11/38/10 15/39/10 16/40/10
f 11/41/11 9/42/11 13/43/11 15/44/11
f 16/45/12 14/46/12 10/47/12 12/48/12
f 20/49/13 18/50/13 17/51/13 19/52/13
f 23/53/14 21/54/14 22/55/14 24/56/14
f 17/57/15 18/58/15 22/59/15 21/60/15
f 20/61/16 19/62/16 23/63/16 24/64/16
f 19/65/17 17/66/17 21/67/17 23/68/17
f 24/69/18 22/70/18 18/71/18 20/72/18
f 28/73/19 26/74/19 25/75/19 27/76/19
f 31/77/20 29/78/20 30/79/20 32/80/20
f 25/81/21 26/82/21 30/83/21 29/84/21
f 28/85/22 27/86/22 31/87/22 32/88/22
f 27/89/23 25/90/23 29/91/23 31/92/23
f 32/93/24 30/94/24 26/95/24 28/96/24
f 36/97/25 34/98/25 33/99/25 35/100/25
f 39/101/26 37/102/26 38/103/26 40/104/26
f 33/105/27 34/106/27 38/107/27 37/108/27
f 36/109/28 35/110/28 39/111/28 40/112/28
f 35/113/29 33/114/29 37/115/29 39/116/29
f 40/117/30 38/118/30 34/119/30 36/120/30
f 44/121/31 42/122/31 41/123/31 43/124/31
f 47/125/32 45/126/32 46/127/32 48/128/32
f 41/129/33 42/130/33 46/131/33 45/132/33
f 44/133/34 43/134/34 47/135/34 48/136/34
f 43/137/35 41/138/35 45/139/35 47/140/35
f 48/141/36 46/142/36 42/143/36 44/144/36
f 52/145/37 50/146/37 49/147/37 51/148/37
f 55/149/38 53/150/38 54/151/38 56/152/38
f 49/153/39 50/154/39 54/155/39 53/156/39
f 52/157/40 51/158/40 55/159/40 56/160/40
f 51/161/41 49/162/41 53/163/41 55/164/41
f 56/165/42 54/166/42 50/167/42 52/168/42
f 60/169/43 58/170/43 57/171/43 59/172/43
f 63/173/44 61/174/44 62/175/44 64/176/44
f 57/177/45 58/178/45 62/179/45 61/180/45
f 60/181/46 59/182/46 63/183/46 64/184/46
f 59/185/47 57/186/47 61/187/47 63/188/47
f 64/189/48 62/190/48 58/191/48 60/192/48
f 68/193/49 66/194/49 65/195/49 67/196/49
f 71/197/50 69/198/50 70/199/50 72/200/50
f 65/201/51 66/202/51 70/203/51 69/204/51
f 68/205/52 67/206/52 71/207/52 72/208/52
f 67/209/53 65/210/53 69/211/53 71/212/53
f 72/213/54 70/214/54 66/215/54 68/216/54
f 76/217/55 74/218/55 73/219/55 75/220/55
f 79/221/56 77/222/56 78/223/56 80/224/56
f 73/225/57 74/226/57 78/227/57 77/228/57
f 76/229/58 75/230/58 79/231/58 80/232/58
f 75/233/59 73/234/59 77/235/59 79/236/59
f 80/237/60 78/238/60 74/239/60 76/240/60
f 82/241/61 81/242/61 84/243/61 83/244/61
f 85/245/62 86/246/62 87/247/62 88/248/62
f 82/249/63 86/250/63 81/251/63 85/252/63
f 83/253/64 87/254/64 84/255/64 88/256/64
f 83/257/65 81/258/65 85/259/65 87/260/65
f 88/261/66 86/262/66 82/263/66 84/264/66
f 92/265/67 90/266/67 89/267/67 91/268/67
f 95/269/68 93/270/68 94/271/68 96/272/68
f 89/273/69 90/274/69 94/275/69 93/276/69
f 92/277/70 91/278/70 95/279/70 96/280/70
f 91/281/71 89/282/71 93/283/71 95/284/71
f 96/285/72 94/286/72 90/287/72 92/288/72
f 100/289/73 98/290/73 97/291/73 99/292/73
f 103/293/74 101/294/74 102/295/74 104/296/74
f 97/297/75 98/298/75 102/299/75 101/300/75
f 100/301/76 99/302/76 103/303/76 104/304/76
f 99/305/77 97/306/77 101/307/77 103/308/77
f 104/309/78 102/310/78 98/311/78 100/312/78
f 108/313/79 106/314/79 105/315/79 107/316/79
f 111/317/80 109/318/80 110/319/80 112/320/80
f 105/321/81 106/322/81 110/323/81 109/324/81
f 108/325/82 107/326/82 111/327/82 112/328/82
f 107/329/83 105/330/83 109/331/83 111/332/83
f 112/333/84 110/334/84 106/335/84 108/336/84