# Made in Blockbench 5.1.4
mtllib milady.mtl

o cube
v 0.0438125 -0.04417868057728551 0.1881535537996829
v 0.0438125 -0.19697850177014642 0.10945647463895596
v 0.0438125 -0.07995008019579775 0.25760801797825605
v 0.0438125 -0.23274990138865867 0.17891093881752912
v 0.018812500000000003 -0.04417868057728551 0.1881535537996829
v 0.018812500000000003 -0.19697850177014642 0.10945647463895596
v 0.018812500000000003 -0.07995008019579775 0.25760801797825605
v 0.018812500000000003 -0.23274990138865867 0.17891093881752912
v 0.0625 -0.3296874999999999 0.2515625
v 0.0625 -0.3296874999999999 0.18906250000000005
v 0.0625 -0.7046874999999999 0.2515625
v 0.0625 -0.7046874999999999 0.18906250000000002
v 0 -0.3296874999999999 0.2515625
v 0 -0.3296874999999999 0.18906250000000005
v 0 -0.7046874999999999 0.2515625
v 0 -0.7046874999999999 0.18906250000000002
v 0.084375 -0.18906249999999988 0.346875
v 0.084375 -0.1890624999999999 0.09375000000000006
v 0.084375 -0.25156249999999997 0.34687500000000004
v 0.084375 -0.2515624999999999 0.09375000000000003
v -0.021875 -0.18906249999999988 0.346875
v -0.021875 -0.1890624999999999 0.09375000000000006
v -0.021875 -0.25156249999999997 0.34687500000000004
v -0.021875 -0.2515624999999999 0.09375000000000003
v 0.040625 1.9515625 0.2515625
v 0.040625 1.9515625000000003 0.18906250000000002
v 0.040625 0.8890625000000001 0.25156249999999997
v 0.040625 0.8890625000000002 0.18906250000000008
v 0.021875 1.9515625 0.2515625
v 0.021875 1.9515625000000003 0.18906250000000002
v 0.021875 0.8890625000000001 0.25156249999999997
v 0.021875 0.8890625000000002 0.18906250000000008
v 0.04063125 1.951562679703363 0.2515626797033632
v 0.04063125 1.982498601380275 0.22062675802645193
v 0.04063125 1.9206267580264522 0.22062675802645215
v 0.04063125 1.9515626797033634 0.18969083634954065
v 0.021881249999999998 1.951562679703363 0.2515626797033632
v 0.021881249999999998 1.982498601380275 0.22062675802645193
v 0.021881249999999998 1.9206267580264522 0.22062675802645215
v 0.021881249999999998 1.9515626797033634 0.18969083634954065
v 0.043875 -0.1962740375915731 0.3313346257425318
v 0.043875 -0.043474216398712226 0.2526375465818049
v 0.043875 -0.23204543721008533 0.26188016156395866
v 0.043875 -0.07924561601722444 0.18318308240323178
v 0.018875000000000003 -0.1962740375915731 0.3313346257425318
v 0.018875000000000003 -0.043474216398712226 0.2526375465818049
v 0.018875000000000003 -0.23204543721008533 0.26188016156395866
v 0.018875000000000003 -0.07924561601722444 0.18318308240323178
v 0.04375 0.8890625000000002 0.2671875
v 0.04375 0.8890625000000001 0.1734375
v 0.04375 -0.2515624999999999 0.2671875
v 0.04375 -0.2515624999999999 0.17343750000000002
v 0.018750000000000003 0.8890625000000002 0.2671875
v 0.018750000000000003 0.8890625000000001 0.1734375
v 0.018750000000000003 -0.2515624999999999 0.2671875
v 0.018750000000000003 -0.2515624999999999 0.17343750000000002
v 0.084375 -0.7046874999999999 0.2671874999999999
v 0.084375 -0.7046874999999999 0.17343750000000002
v 0.084375 -0.7828124999999998 0.26718749999999997
v 0.084375 -0.7828124999999998 0.17343750000000002
v -0.021875 -0.7046874999999999 0.2671874999999999
v -0.021875 -0.7046874999999999 0.17343750000000002
v -0.021875 -0.7828124999999998 0.26718749999999997
v -0.021875 -0.7828124999999998 0.17343750000000002
v 0.0984375 -0.8140624999999999 0.27656250000000004
v 0.0984375 -0.8140624999999999 0.16406249999999994
v 0.0984375 -0.9234374999999999 0.2765625
v 0.0984375 -0.9234374999999999 0.16406250000000006
v -0.0359375 -0.8140624999999999 0.27656250000000004
v -0.0359375 -0.8140624999999999 0.16406249999999994
v -0.0359375 -0.9234374999999999 0.2765625
v -0.0359375 -0.9234374999999999 0.16406250000000006
v 0.078125 -0.2515624999999999 0.259375
v 0.078125 -0.2515624999999999 0.18125000000000002
v 0.078125 -0.3296874999999999 0.259375
v 0.078125 -0.3296874999999999 0.18125000000000008
v -0.015625 -0.2515624999999999 0.259375
v -0.015625 -0.2515624999999999 0.18125000000000002
v -0.015625 -0.3296874999999999 0.259375
v -0.015625 -0.3296874999999999 0.18125000000000008
v 0.078125 -0.7828124999999999 0.25156249999999997
v 0.078125 -0.7828124999999999 0.18906250000000002
v 0.078125 -0.8140624999999999 0.2515625000000001
v 0.078125 -0.8140625 0.18906250000000008
v -0.015625 -0.7828124999999999 0.25156249999999997
v -0.015625 -0.7828124999999999 0.18906250000000002
v -0.015625 -0.8140624999999999 0.2515625000000001
v -0.015625 -0.8140625 0.18906250000000008
vt 0.4921875 0.6484375
vt 0.4921875 0.6875
vt 0.40625 0.6875
vt 0.40625 0.6484375
vt 0.40625 0.6484375
vt 0.40625 0.6875
vt 0.4921875 0.6875
vt 0.4921875 0.6484375
vt 0.5 0.75
vt 0.5 0.6640625
vt 0.53125 0.6640625
vt 0.53125 0.75
vt 0.5 0.5703125
vt 0.5 0.65625
vt 0.53125 0.65625
vt 0.53125 0.5703125
vt 0.59375 0.3984375
vt 0.59375 0.4375
vt 0.5625 0.4375
vt 0.5625 0.3984375
vt 0.5625 0.3984375
vt 0.5625 0.4375
vt 0.53125 0.4375
vt 0.53125 0.3984375
vt 0.375 0.4609375
vt 0.375 0.6875
vt 0.34375 0.6875
vt 0.34375 0.4609375
vt 0.40625 0.5234375
vt 0.40625 0.75
vt 0.375 0.75
vt 0.375 0.5234375
vt 0.53125 0.59375
vt 0.53125 0.5625
vt 0.5625 0.5625
vt 0.5625 0.59375
vt 0.0625 0.375
vt 0.0625 0.40625
vt 0.09375 0.40625
vt 0.09375 0.375
vt 0.40625 0.7734375
vt 0.40625 1
vt 0.375 1
vt 0.375 0.7734375
vt 0.34375 0.4609375
vt 0.34375 0.6875
vt 0.3125 0.6875
vt 0.3125 0.4609375
vt 0.5625 0.96875
vt 0.5625 1
vt 0.40625 1
vt 0.40625 0.96875
vt 0.5625 0.9375
vt 0.5625 0.96875
vt 0.40625 0.96875
vt 0.40625 0.9375
vt 0.3125 1
vt 0.3125 0.84375
vt 0.375 0.84375
vt 0.375 1
vt 0.3125 0.6875
vt 0.3125 0.84375
vt 0.375 0.84375
vt 0.375 0.6875
vt 0.59375 0.71875
vt 0.59375 0.75
vt 0.53125 0.75
vt 0.53125 0.71875
vt 0.3125 0.4375
vt 0.3125 0.46875
vt 0.25 0.46875
vt 0.25 0.4375
vt 0.25 0.46875
vt 0.25 1
vt 0.21875 1
vt 0.21875 0.46875
vt 0.21875 1
vt 0.21875 0.46875
vt 0.25 0.46875
vt 0.25 1
vt 0.59375 0.9375
vt 0.59375 0.90625
vt 0.625 0.90625
vt 0.625 0.9375
vt 0.09375 0.375
vt 0.09375 0.40625
vt 0.125 0.40625
vt 0.125 0.375
vt 0.1875 0.4609375
vt 0.1875 0.9921875
vt 0.21875 0.9921875
vt 0.21875 0.4609375
vt 0.21875 0.46875
vt 0.21875 1
vt 0.1875 1
vt 0.1875 0.46875
vt 0.6171875 0.6640625
vt 0.6171875 0.6875
vt 0.59375 0.6875
vt 0.59375 0.6640625
vt 0.6171875 0.6328125
vt 0.6171875 0.65625
vt 0.59375 0.65625
vt 0.59375 0.6328125
vt 0.59375 0.75
vt 0.59375 0.7265625
vt 0.625 0.7265625
vt 0.625 0.75
vt 0.59375 0.6953125
vt 0.59375 0.71875
vt 0.625 0.71875
vt 0.625 0.6953125
vt 0.25 0.3828125
vt 0.25 0.40625
vt 0.21875 0.40625
vt 0.21875 0.3828125
vt 0.21875 0.3828125
vt 0.21875 0.40625
vt 0.1875 0.40625
vt 0.1875 0.3828125
vt 0.4921875 0.5234375
vt 0.4921875 0.5625
vt 0.40625 0.5625
vt 0.40625 0.5234375
vt 0.5859375 0.8984375
vt 0.5859375 0.9375
vt 0.5 0.9375
vt 0.5 0.8984375
vt 0.375 0.5
vt 0.375 0.4140625
vt 0.40625 0.4140625
vt 0.40625 0.5
vt 0.40625 0.4140625
vt 0.40625 0.5
vt 0.4375 0.5
vt 0.4375 0.4140625
vt 0.0625 0.3671875
vt 0.0625 0.40625
vt 0.03125 0.40625
vt 0.03125 0.3671875
vt 0.03125 0.3671875
vt 0.03125 0.40625
vt 0 0.40625
vt 0 0.3671875
vt 0.046875 0.4296875
vt 0.046875 1
vt 0 1
vt 0 0.4296875
vt 0 0.4140625
vt 0 0.984375
vt 0.046875 0.984375
vt 0.046875 0.4140625
vt 0.5 0.4375
vt 0.5 0.390625
vt 0.53125 0.390625
vt 0.53125 0.4375
vt 0.5625 0.453125
vt 0.5625 0.5
vt 0.59375 0.5
vt 0.59375 0.453125
vt 0.1875 0.4296875
vt 0.1875 1
vt 0.15625 1
vt 0.15625 0.4296875
vt 0.15625 0.4296875
vt 0.15625 1
vt 0.125 1
vt 0.125 0.4296875
vt 0.578125 0.6796875
vt 0.578125 0.71875
vt 0.53125 0.71875
vt 0.53125 0.6796875
vt 0.578125 0.6171875
vt 0.578125 0.65625
vt 0.53125 0.65625
vt 0.53125 0.6171875
vt 0.4375 0.5
vt 0.4375 0.453125
vt 0.4921875 0.453125
vt 0.4921875 0.5
vt 0.5 0.515625
vt 0.5 0.5625
vt 0.5546875 0.5625
vt 0.5546875 0.515625
vt 0.2421875 0.4296875
vt 0.2421875 0.46875
vt 0.1875 0.46875
vt 0.1875 0.4296875
vt 0.5546875 0.4609375
vt 0.5546875 0.5
vt 0.5 0.5
vt 0.5 0.4609375
vt 0.5546875 0.8203125
vt 0.5546875 0.875
vt 0.5 0.875
vt 0.5 0.8203125
vt 0.5546875 0.7578125
vt 0.5546875 0.8125
vt 0.5 0.8125
vt 0.5 0.7578125
vt 0.40625 0.8125
vt 0.40625 0.7578125
vt 0.4765625 0.7578125
vt 0.4765625 0.8125
vt 0.40625 0.6953125
vt 0.40625 0.75
vt 0.4765625 0.75
vt 0.4765625 0.6953125
vt 0.4765625 0.8203125
vt 0.4765625 0.875
vt 0.40625 0.875
vt 0.40625 0.8203125
vt 0.4765625 0.8828125
vt 0.4765625 0.9375
vt 0.40625 0.9375
vt 0.40625 0.8828125
vt 0.3515625 0.3984375
vt 0.3515625 0.4375
vt 0.3125 0.4375
vt 0.3125 0.3984375
vt 0.6015625 0.5546875
vt 0.6015625 0.59375
vt 0.5625 0.59375
vt 0.5625 0.5546875
vt 0.5625 0.8125
vt 0.5625 0.7734375
vt 0.609375 0.7734375
vt 0.609375 0.8125
vt 0.25 0.3984375
vt 0.25 0.4375
vt 0.296875 0.4375
vt 0.296875 0.3984375
vt 0.609375 0.8359375
vt 0.609375 0.875
vt 0.5625 0.875
vt 0.5625 0.8359375
vt 0.609375 0.9609375
vt 0.609375 1
vt 0.5625 1
vt 0.5625 0.9609375
vt 0.40625 0.390625
vt 0.40625 0.40625
vt 0.375 0.40625
vt 0.375 0.390625
vt 0.625 0.609375
vt 0.625 0.625
vt 0.59375 0.625
vt 0.59375 0.609375
vt 0.4375 0.4375
vt 0.4375 0.40625
vt 0.484375 0.40625
vt 0.484375 0.4375
vt 0.5625 0.5
vt 0.5625 0.53125
vt 0.609375 0.53125
vt 0.609375 0.5
vt 0.171875 0.390625
vt 0.171875 0.40625
vt 0.125 0.40625
vt 0.125 0.390625
vt 0.640625 0.890625
vt 0.640625 0.90625
vt 0.59375 0.90625
vt 0.59375 0.890625
vn 1 0 0
vn -1 0 0
vn 0 0.45787391511695685 -0.8890171414857365
vn 0 -0.45787391511695685 0.8890171414857365
vn 0 0.8890171414857365 0.45787391511695685
vn 0 -0.8890171414857365 -0.45787391511695685
vn 1 0 0
vn -1 0 0
vn 0 1 -5.5511151231257815e-17
vn 0 -1 4.440892098500625e-16
vn 0 1.1102230246251565e-16 1
vn 0 5.5511151231257815e-17 -1
vn 1 0 0
vn -1 0 0
vn 0 1 5.5511151231257815e-17
vn 0 -1 -1.1102230246251563e-16
vn 0 4.440892098500625e-16 1
vn 0 3.3306690738754686e-16 -1
vn 1 0 0
vn -1 0 0
vn 0 1 1.498801083243961e-15
vn 0 -1 -7.216449660063518e-16
vn 0 -1.1102230246251563e-16 1
vn 0 0 -1
vn 1 0 0
vn -1 0 0
vn 0 0.7071067811865404 0.7071067811865548
vn 0 -0.7071067811865472 -0.7071067811865479
vn 0 -0.7071067811865478 0.7071067811865474
vn 0 0.7071067811865457 -0.7071067811865496
vn 1 0 0
vn -1 0 0
vn 0 0.45787391511695674 0.8890171414857364
vn 0 -0.4578739151169567 -0.8890171414857365
vn 0 -0.8890171414857364 0.45787391511695685
vn 0 0.8890171414857366 -0.45787391511695663
vn 1 0 0
vn -1 0 0
vn 0 1 -9.992007221626407e-16
vn 0 -1 -2.2204460492503126e-16
vn 0 -5.5511151231257815e-17 1
vn 0 5.5511151231257815e-17 -1
vn 1 0 0
vn -1 0 0
vn 0 1 7.216449660063518e-16
vn 0 -1 5.551115123125783e-17
vn 0 9.992007221626407e-16 1
vn 0 1.6653345369377343e-16 -1
vn 1 0 0
vn -1 0 0
vn 0 1 -5.551115123125783e-16
vn 0 -1 -2.775557561562891e-16
vn 0 -1.6653345369377343e-16 1
vn 0 -2.775557561562891e-16 -1
vn 1 0 0
vn -1 0 0
vn 0 1 -5.5511151231257815e-17
vn 0 -1 5.5511151231257815e-17
vn 0 2.2204460492503126e-16 1
vn 0 -2.2204460492503126e-16 -1
vn 1 0 0
vn -1 0 0
vn 0 1 7.216449660063518e-16
vn 0 -1 8.326672684688674e-16
vn 0 3.219646771412954e-15 1
vn 0 -1.609823385706477e-15 -1
usemtl m_b464caaf-bdcc-0c32-69e6-f11a386237ae
f 4/1/1 2/2/1 1/3/1 3/4/1
f 7/5/2 5/6/2 6/7/2 8/8/2
f 1/9/3 2/10/3 6/11/3 5/12/3
f 4/13/4 3/14/4 7/15/4 8/16/4
f 3/17/5 1/18/5 5/19/5 7/20/5
f 8/21/6 6/22/6 2/23/6 4/24/6
f 12/25/7 10/26/7 9/27/7 11/28/7
f 15/29/8 13/30/8 14/31/8 16/32/8
f 9/33/9 10/34/9 14/35/9 13/36/9
f 12/37/10 11/38/10 15/39/10 16/40/10
f 11/41/11 9/42/11 13/43/11 15/44/11
f 16/45/12 14/46/12 10/47/12 12/48/12
f 20/49/13 18/50/13 17/51/13 19/52/13
f 23/53/14 21/54/14 22/55/14 24/56/14
f 17/57/15 18/58/15 22/59/15 21/60/15
f 20/61/16 19/62/16 23/63/16 24/64/16
f 19/65/17 17/66/17 21/67/17 23/68/17
f 24/69/18 22/70/18 18/71/18 20/72/18
f 28/73/19 26/74/19 25/75/19 27/76/19
f 31/77/20 29/78/20 30/79/20 32/80/20
f 25/81/21 26/82/21 30/83/21 29/84/21
f 28/85/22 27/86/22 31/87/22 32/88/22
f 27/89/23 25/90/23 29/91/23 31/92/23
f 32/93/24 30/94/24 26/95/24 28/96/24
f 36/97/25 34/98/25 33/99/25 35/100/25
f 39/101/26 37/102/26 38/103/26 40/104/26
f 33/105/27 34/106/27 38/107/27 37/108/27
f 36/109/28 35/110/28 39/111/28 40/112/28
f 35/113/29 33/114/29 37/115/29 39/116/29
f 40/117/30 38/118/30 34/119/30 36/120/30
f 44/121/31 42/122/31 41/123/31 43/124/31
f 47/125/32 45/126/32 46/127/32 48/128/32
f 41/129/33 42/130/33 46/131/33 45/132/33
f 44/133/34 43/134/34 47/135/34 48/136/34
f 43/137/35 41/138/35 45/139/35 47/140/35
f 48/141/36 46/142/36 42/143/36 44/144/36
f 52/145/37 50/146/37 49/147/37 51/148/37
f 55/149/38 53/150/38 54/151/38 56/152/38
f 49/153/39 50/154/39 54/155/39 53/156/39
f 52/157/40 51/158/40 55/159/40 56/160/40
f 51/161/41 49/162/41 53/163/41 55/164/41
f 56/165/42 54/166/42 50/167/42 52/168/42
f 60/169/43 58/170/43 57/171/43 59/172/43
f 63/173/44 61/174/44 62/175/44 64/176/44
f 57/177/45 58/178/45 62/179/45 61/180/45
f 60/181/46 59/182/46 63/183/46 64/184/46
f 59/185/47 57/186/47 61/187/47 63/188/47
f 64/189/48 62/190/48 58/191/48 60/192/48
f 68/193/49 66/194/49 65/195/49 67/196/49
f 71/197/50 69/198/50 70/199/50 72/200/50
f 65/201/51 66/202/51 70/203/51 69/204/51
f 68/205/52 67/206/52 71/207/52 72/208/52
f 67/209/53 65/210/53 69/211/53 71/212/53
f 72/213/54 70/214/54 66/215/54 68/216/54
f 76/217/55 74/218/55 73/219/55 75/220/55
f 79/221/56 77/222/56 78/223/56 80/224/56
f 73/225/57 74/226/57 78/227/57 77/228/57
f 76/229/58 75/230/58 79/231/58 80/232/58
f 75/233/59 73/234/59 77/235/59 79/236/59
f 80/237/60 78/238/60 74/239/60 76/240/60
f 84/241/61 82/242/61 81/243/61 83/244/61
f 87/245/62 85/246/62 86/247/62 88/248/62
f 81/249/63 82/250/63 86/251/63 85/252/63
f 84/253/64 83/254/64 87/255/64 88/256/64
f 83/257/65 81/258/65 85/259/65 87/260/65
f 88/261/66 86/262/66 82/263/66 84/264/66