# Made in Blockbench 5.1.6
mtllib nightingale.mtl

o sphere
v 0 -0.51875 0.012112499999999943
v 0.002093125 -0.464418125 0.03613437499999997
v 0.003625625 -0.3992125 0.052597499999999964
v 0.004186875 -0.359495 0.06249999999999997
v 0.003625625 -0.31977750000000005 0.052597499999999964
v 0.002093125 -0.28573750000000003 0.01679812499999997
v 0.005719375 -0.464418125 0.02623187499999996
v 0.009905625 -0.3992125 0.03107312499999998
v 0.011438125 -0.359495 0.04269437499999998
v 0.009905625 -0.31977750000000005 0.035444999999999977
v 0.005719375 -0.28573750000000003 0.006895624999999961
v 0.0078125 -0.464418125 0.007231874999999971
v 0.013531875 -0.3992125 0.016148124999999985
v 0.015625 -0.359495 0.018801249999999964
v 0.013531875 -0.31977750000000005 0.005736874999999975
v 0.0078125 -0.28573750000000003 -0.010256250000000008
v -0.002093125 -0.464418125 0.03613437499999997
v -0.003625625 -0.3992125 0.052597499999999964
v -0.004186875 -0.359495 0.06249999999999997
v -0.003625625 -0.31977750000000005 0.052597499999999964
v -0.002093125 -0.28573750000000003 0.01679812499999997
v -0.005719375 -0.464418125 0.02623187499999996
v -0.009905625 -0.3992125 0.03107312499999998
v -0.011438125 -0.359495 0.04269437499999998
v -0.009905625 -0.31977750000000005 0.035444999999999977
v -0.005719375 -0.28573750000000003 0.006895624999999961
v -0.0078125 -0.464418125 0.007231874999999971
v -0.013531875 -0.3992125 0.016148124999999985
v -0.015625 -0.359495 0.018801249999999964
v -0.013531875 -0.31977750000000005 0.005736874999999975
v -0.0078125 -0.28573750000000003 -0.010256250000000008
v 0 -0.4375 0
v 0 0.9375 0
v 0.004186875 -0.4375 -0.015625
v 0.002511875 0.9125000000000001 -0.009374999999999994
v 0.011438125 -0.4375 -0.011438125000000007
v 0.006863125 0.9125000000000001 -0.006863124999999998
v 0.015625 -0.4375 -0.0041868750000000066
v 0.009375 0.9125000000000001 -0.0025118749999999967
v 0.015625 -0.4375 0.0041868750000000066
v 0.009375 0.9125000000000001 0.0025118749999999967
v 0.011438125 -0.4375 0.011438124999999993
v 0.006863125 0.9125000000000001 0.006863124999999998
v 0.004186875 -0.4375 0.015625
v 0.002511875 0.9125000000000001 0.009374999999999994
v -0.004186875 -0.4375 -0.015625
v -0.002511875 0.9125000000000001 -0.009374999999999994
v -0.011438125 -0.4375 -0.011438125000000007
v -0.006863125 0.9125000000000001 -0.006863124999999998
v -0.015625 -0.4375 -0.0041868750000000066
v -0.009375 0.9125000000000001 -0.0025118749999999967
v -0.015625 -0.4375 0.0041868750000000066
v -0.009375 0.9125000000000001 0.0025118749999999967
v -0.011438125 -0.4375 0.011438124999999993
v -0.006863125 0.9125000000000001 0.006863124999999998
v -0.004186875 -0.4375 0.015625
v -0.002511875 0.9125000000000001 0.009374999999999994
v 0.0078125 0.953125 0.0078125
v 0.0078125 0.953125 -0.0078125
v 0.0234375 0.671875 0.0234375
v 0.0234375 0.671875 -0.023437500000000014
v 0.03125 0.7421875 0.0234375
v 0.03125 0.8828125 0.0234375
v 0.03125 0.7421875 -0.0234375
v 0.03125 0.8828125 -0.023437500000000014
v 0.0234375 0.7421875 -0.03125
v 0.0234375 0.8828125 -0.031250000000000014
v 0.0234375 0.7421875 0.03125
v 0.0234375 0.8828125 0.03125
v -0.0078125 0.953125 0.0078125
v -0.0078125 0.953125 -0.0078125
v -0.0234375 0.671875 0.0234375
v -0.0234375 0.671875 -0.023437500000000014
v -0.03125 0.7421875 0.0234375
v -0.03125 0.8828125 0.0234375
v -0.03125 0.7421875 -0.0234375
v -0.03125 0.8828125 -0.023437500000000014
v -0.0234375 0.7421875 -0.03125
v -0.0234375 0.8828125 -0.031250000000000014
v -0.0234375 0.7421875 0.03125
v -0.0234375 0.8828125 0.03125
v 1.2901960190717153e-17 1.634375 0.027227499999999988
v -0.007812499999999988 1.425559375 0.01786874999999999
v -0.013531874999999983 1.237488125 0.06012000000000001
v -0.015624999999999983 1.08483875 0.06520875000000001
v -0.013531874999999987 0.9321900000000001 0.031770625
v -0.007812499999999988 0.8013625 0.01786874999999999
v -0.005719374999999983 1.425559375 0.05430499999999999
v -0.009905624999999979 1.237488125 0.08874187499999997
v -0.011438124999999978 1.08483875 0.10264375
v -0.009905624999999979 0.9321900000000001 0.088741875
v -0.0057193749999999875 0.8013625 0.01951124999999998
v -0.0020931249999999813 1.425559375 0.07329499999999997
v -0.0036256249999999757 1.237488125 0.12163437499999996
v -0.004186874999999973 1.08483875 0.140625
v -0.0036256249999999757 0.9321900000000001 0.12163437499999999
v -0.0020931249999999856 0.8013625 0.03850187499999999
v 0.0020931250000000186 1.425559375 0.07329499999999997
v 0.0036256250000000242 1.237488125 0.12163437499999996
v 0.0041868750000000265 1.08483875 0.140625
v 0.0036256250000000242 0.9321900000000001 0.12163437499999999
v 0.0020931250000000142 0.8013625 0.03850187499999999
v 0.005719375000000016 1.425559375 0.05430499999999999
v 0.00990562500000002 1.237488125 0.08874187499999997
v 0.011438125000000023 1.08483875 0.10264375
v 0.00990562500000002 0.9321900000000001 0.088741875
v 0.005719375000000012 0.8013625 0.01951124999999998
v 0.007812500000000012 1.425559375 0.01786874999999999
v 0.013531875000000018 1.237488125 0.06012000000000001
v 0.015625000000000017 1.08483875 0.06520875000000001
v 0.013531875000000014 0.9321900000000001 0.031770625
v 0.007812500000000012 0.8013625 0.01786874999999999
v 0 1.634375 -0.027227500000000016
v 0.002093125 1.425559375 -0.07329500000000001
v 0.003625625 1.237488125 -0.121634375
v 0.004186875 1.08483875 -0.140625
v 0.003625625 0.9321900000000001 -0.12163437499999999
v 0.002093125 0.8013625 -0.038501875000000005
v 0.005719375 1.425559375 -0.05430499999999999
v 0.009905625 1.237488125 -0.088741875
v 0.011438125 1.08483875 -0.10264375000000002
v 0.009905625 0.9321900000000001 -0.088741875
v 0.005719375 0.8013625 -0.019511249999999994
v 0.0078125 1.425559375 -0.017868750000000017
v 0.013531875 1.237488125 -0.06012000000000002
v 0.015625 1.08483875 -0.06520875000000002
v 0.013531875 0.9321900000000001 -0.031770625
v 0.0078125 0.8013625 -0.017868750000000003
v -0.002093125 1.425559375 -0.07329500000000001
v -0.003625625 1.237488125 -0.121634375
v -0.004186875 1.08483875 -0.140625
v -0.003625625 0.9321900000000001 -0.12163437499999999
v -0.002093125 0.8013625 -0.038501875000000005
v -0.005719375 1.425559375 -0.05430499999999999
v -0.009905625 1.237488125 -0.088741875
v -0.011438125 1.08483875 -0.10264375000000002
v -0.009905625 0.9321900000000001 -0.088741875
v -0.005719375 0.8013625 -0.019511249999999994
v -0.0078125 1.425559375 -0.017868750000000017
v -0.013531875 1.237488125 -0.06012000000000002
v -0.015625 1.08483875 -0.06520875000000002
v -0.013531875 0.9321900000000001 -0.031770625
v -0.0078125 0.8013625 -0.017868750000000003
v 0 0.703125 -1.3877787807814457e-17
v 0 0.328125 -6.938893903907228e-17
v 0.008373125 0.703125 0.03125
v 0.022876875 0.703125 0.02287687499999999
v 0.03125 0.703125 0.008373124999999981
v 0.03125 0.703125 -0.008373125000000009
v 0.022876875 0.703125 -0.02287687500000002
v 0.008373125 0.703125 -0.03125
v -0.008373125 0.703125 0.03125
v -0.022876875 0.703125 0.02287687499999999
v -0.03125 0.703125 0.008373124999999981
v -0.03125 0.703125 -0.008373125000000009
v -0.022876875 0.703125 -0.02287687500000002
v -0.008373125 0.703125 -0.03125
v -4.247993584542381e-17 -0.51875 -0.012112499999999998
v -0.007812500000000036 -0.464418125 -0.007231875000000013
v -0.013531875000000028 -0.39921249999999997 -0.016148125000000013
v -0.015625000000000024 -0.359495 -0.018801250000000005
v -0.013531875000000018 -0.3197775 -0.005736875000000002
v -0.007812500000000014 -0.2857375 0.010256249999999967
v -0.005719375000000035 -0.464418125 -0.026231875
v -0.009905625000000027 -0.39921249999999997 -0.035445000000000004
v -0.011438125000000023 -0.359495 -0.04269437500000002
v -0.009905625000000017 -0.31977749999999994 -0.035445000000000004
v -0.0057193750000000135 -0.2857375 -0.0068956250000000024
v -0.002093125000000036 -0.464418125 -0.03613437500000001
v -0.0036256250000000277 -0.39921249999999997 -0.05259749999999999
v -0.004186875000000022 -0.359495 -0.0625
v -0.003625625000000018 -0.31977749999999994 -0.05259749999999999
v -0.002093125000000014 -0.2857375 -0.01679812500000001
v 0.002093124999999964 -0.464418125 -0.03613437500000001
v 0.003625624999999972 -0.39921249999999997 -0.05259749999999999
v 0.004186874999999977 -0.359495 -0.0625
v 0.0036256249999999817 -0.31977749999999994 -0.05259749999999999
v 0.002093124999999986 -0.2857375 -0.01679812500000001
v 0.005719374999999964 -0.464418125 -0.026231875
v 0.009905624999999972 -0.39921249999999997 -0.031073125000000007
v 0.011438124999999978 -0.359495 -0.04269437500000002
v 0.009905624999999982 -0.31977749999999994 -0.035445000000000004
v 0.005719374999999986 -0.2857375 -0.0068956250000000024
v 0.0078124999999999644 -0.464418125 -0.007231875000000013
v 0.013531874999999973 -0.39921249999999997 -0.016148125000000013
v 0.015624999999999977 -0.359495 -0.018801250000000005
v 0.013531874999999983 -0.3197775 -0.005736875000000002
v 0.007812499999999986 -0.2857375 0.010256249999999967
v 0 -0.4375 -2.7755575615628914e-17
v 0 -0.53125 -4.163336342344337e-17
v 0.004186875 -0.4375 0.015624999999999972
v 0.011438125 -0.4375 0.011438124999999966
v 0.015625 -0.4375 0.004186874999999979
v 0.015625 -0.4375 -0.0041868750000000204
v 0.011438125 -0.4375 -0.011438125000000021
v 0.004186875 -0.4375 -0.015625000000000028
v -0.004186875 -0.4375 0.015624999999999972
v -0.011438125 -0.4375 0.011438124999999966
v -0.015625 -0.4375 0.004186874999999979
v -0.015625 -0.4375 -0.0041868750000000204
v -0.011438125 -0.4375 -0.011438125000000021
v -0.004186875 -0.4375 -0.015625000000000028
vt 0.3920546875 0.592596875
vt 0.3931015625 0.592596875
vt 0.392578125 0.6074484375
vt 0.3920546875 0.592596875
vt 0.391671875 0.575784375
vt 0.393484375 0.575784375
vt 0.3931015625 0.592596875
vt 0.391671875 0.575784375
vt 0.39153125 0.5655515625
vt 0.393625 0.5655515625
vt 0.393484375 0.575784375
vt 0.39153125 0.5655515625
vt 0.391671875 0.55531875
vt 0.393484375 0.55531875
vt 0.393625 0.5655515625
vt 0.391671875 0.55531875
vt 0.3920546875 0.54296875
vt 0.3931015625 0.54296875
vt 0.393484375 0.55531875
vt 0.4545546875 0.87109375
vt 0.4556015625 0.87109375
vt 0.4565078125 0.875
vt 0.4536484375 0.875
vt 0.25928976160631234 0.7326758608152303
vt 0.2619255004581369 0.7327082214222838
vt 0.2562968499078876 0.7464620316903305
vt 0.2602668137591998 0.7163255032198489
vt 0.2658729511277498 0.7163610400661877
vt 0.2619255004581369 0.7327082214222838
vt 0.25929440236444273 0.7326759177927075
vt 0.2630328125 0.706348141980823
vt 0.26830549816202387 0.706437186777942
vt 0.2658607742852917 0.7163754482203959
vt 0.2602687508602504 0.716318515813581
vt 0.2616312098286128 0.6963449240078483
vt 0.2661977461812338 0.6964220433980643
vt 0.26830549816202387 0.706437186777942
vt 0.2630328125 0.706348141980823
vt 0.2543203125 0.6876809544808229
vt 0.25695003149254964 0.6875
vt 0.26583246122990106 0.6960886166809483
vt 0.2612774998483297 0.6964004834704991
vt 0.25642620187663856 0.7163154653837143
vt 0.2602668137591998 0.7163255032198489
vt 0.259294388997968 0.7326761425405918
vt 0.2545552160879889 0.7327121938877698
vt 0.2569672165694888 0.7063669209155923
vt 0.2630328125 0.706348141980823
vt 0.2602668137591998 0.7163255032198489
vt 0.2564355143963198 0.7163154897229471
vt 0.253796875 0.6964012669808229
vt 0.26127968749999997 0.6964012669808229
vt 0.2630328125 0.706348141980823
vt 0.2569765625 0.7063668919808229
vt 0.25 0.6876809544808229
vt 0.2543203125 0.6876809544808229
vt 0.261278125 0.6964012669808229
vt 0.253796875 0.6964012669808229
vt 0.28845454184532215 0.9049793921062858
vt 0.29108999707080757 0.9050298129191316
vt 0.2936485300180613 0.9189031664066576
vt 0.28845454184532215 0.9049793921062858
vt 0.2850223595469165 0.8885163173707257
vt 0.29062684820330764 0.8886568376998002
vt 0.2910853568120595 0.9050297241429629
vt 0.2850223595469165 0.8885163173707257
vt 0.28292938769276327 0.8784980748028023
vt 0.288201936224885 0.8785948996076149
vt 0.2906129158139234 0.8886564883755244
vt 0.28292938769276327 0.8784980748028023
vt 0.28538877329715895 0.8685634314885748
vt 0.2899551908851269 0.8686472889417505
vt 0.288201936224885 0.8785948996076149
vt 0.28538877329715895 0.8685634314885748
vt 0.29383086010292436 0.8595416209776424
vt 0.296466336533015 0.8595909209811198
vt 0.28995362891584797 0.8686472602578286
vt 0.29194035972691706 0.9049229001673837
vt 0.2967183464828344 0.9049592467752459
vt 0.2951875872744949 0.9186511236216871
vt 0.29194035972691706 0.9049229001673837
vt 0.2909679349656852 0.8885722608466409
vt 0.2948085468482465 0.8885622230105064
vt 0.29667953263689606 0.9049589515145617
vt 0.2909679349656852 0.8885722608466409
vt 0.288201936224885 0.8785948996076149
vt 0.2942675321553962 0.8786136785423844
vt 0.2947992343285652 0.8885622473497391
vt 0.288201936224885 0.8785948996076149
vt 0.289955061224885 0.8686480246076149
vt 0.297437873724885 0.8686480246076149
vt 0.29425818622488503 0.878613649607615
vt 0.28995304370377284 0.8686480740328991
vt 0.296466336533015 0.8595909209811198
vt 0.30078125 0.859375
vt 0.2974249444921722 0.8682741754225549
vt 0.42265625 0.6559421875
vt 0.4296875 0.6459781250000001
vt 0.429603125 0.6559421875
vt 0.4238953125 0.65625
vt 0.2867187500000002 0.8882656250000001
vt 0.2872812500000002 0.8765625000000001
vt 0.2933468750000002 0.8765625000000001
vt 0.2905500000000002 0.8882812500000001
vt 0.3911484375 0.8828125
vt 0.3979140625 0.8828125
vt 0.3984375 0.8932640625
vt 0.390625 0.8932640625
vt 0.25928976160631234 0.7326758608152303
vt 0.25629690571551234 0.7464617746251283
vt 0.2545132635525672 0.7328005398358935
vt 0.2549546158042035 0.7333016939594929
vt 0.390625 0.8932640625
vt 0.3984375 0.8932640625
vt 0.3979140625 0.903215625
vt 0.3911484375 0.903215625
vt 0.421875 0.8873044391751159
vt 0.4296875 0.88671875
vt 0.4296875 0.9032338742385058
vt 0.42472364065310425 0.9035720319608591
vt 0.424734375 0.6171875
vt 0.426828125 0.6171875
vt 0.42578125 0.62109375
vt 0.19098941584283516 0.6554301637395877
vt 0.19308310782727842 0.6554457501688821
vt 0.19015190681812674 0.9929364060350439
vt 0.18889569162746078 0.9929270541774673
vt 0.18889569162746078 0.9929270541774673
vt 0.19015190681812674 0.9929364060350439
vt 0.18947410875567036 0.999606545149197
vt 0.426828125 0.625
vt 0.424734375 0.625
vt 0.42578125 0.62109375
vt 0.190359375 0.655821875
vt 0.192453125 0.655821875
vt 0.192034375 0.993325
vt 0.190778125 0.993325
vt 0.190778125 0.993325
vt 0.192034375 0.993325
vt 0.19140625 1
vt 0.426828125 0.6171875
vt 0.428640625 0.618234375
vt 0.42578125 0.62109375
vt 0.18763945709823623 0.9929208195897536
vt 0.18889569162746092 0.655419772760065
vt 0.19098941584283516 0.6554301637395877
vt 0.18889569162746078 0.9929270541774673
vt 0.18765978419549273 0.9931522138588184
vt 0.18889569162746078 0.9929270541774673
vt 0.18947410875567036 0.999606545149197
vt 0.428640625 0.618234375
vt 0.4296875 0.620046875
vt 0.42578125 0.62109375
vt 0.19203437500000003 0.9933234618873554
vt 0.19245312500000006 0.6558203368873554
vt 0.19454686855373446 0.6558255324331023
vt 0.1932906211322407 0.9933265792148036
vt 0.19203437500000003 0.9933234618873554
vt 0.1932906211322407 0.9933265792148036
vt 0.1926459343560975 1
vt 0.4296875 0.620046875
vt 0.4296875 0.622140625
vt 0.42578125 0.62109375
vt 0.19077812500000005 0.9933234618873554
vt 0.19035937500000005 0.6558203368873554
vt 0.19245312500000006 0.6558203368873554
vt 0.19203437500000003 0.9933234618873554
vt 0.1907996002233389 0.9935547524263348
vt 0.19203437500000003 0.9933234618873554
vt 0.1926459343560975 1
vt 0.4296875 0.622140625
vt 0.428640625 0.623953125
vt 0.42578125 0.62109375
vt 0.1895218788677594 0.9933265792148036
vt 0.18826563144626554 0.6558255324331024
vt 0.19035937499999994 0.6558203368873555
vt 0.19077812500000005 0.9933234618873554
vt 0.1895218788677594 0.9933265792148036
vt 0.19077812500000005 0.9933234618873554
vt 0.19016656564390244 1
vt 0.428640625 0.623953125
vt 0.426828125 0.625
vt 0.42578125 0.62109375
vt 0.192034375 0.9933249999999999
vt 0.192453125 0.655821875
vt 0.1945468685537344 0.6558270705457467
vt 0.19329062113224066 0.9933281173274481
vt 0.192034375 0.993325
vt 0.19326857203802844 0.9935593538645335
vt 0.19140625 1
vt 0.422921875 0.618234375
vt 0.424734375 0.6171875
vt 0.42578125 0.62109375
vt 0.19308310782727842 0.6554457501688821
vt 0.19517675468861667 0.6554665319519726
vt 0.19140809493492972 0.9929488751048982
vt 0.19015190681812674 0.9929364060350439
vt 0.19015190681812674 0.9929364060350439
vt 0.19138432506567507 0.9931799410953738
vt 0.18947410875567036 0.999606545149197
vt 0.421875 0.620046875
vt 0.422921875 0.618234375
vt 0.42578125 0.62109375
vt 0.1882656314462656 0.6558270705457467
vt 0.190359375 0.655821875
vt 0.190778125 0.9933249999999999
vt 0.18952187886775934 0.9933281173274481
vt 0.18954392796197156 0.9935593538645335
vt 0.190778125 0.993325
vt 0.19140625 1
vt 0.421875 0.622140625
vt 0.421875 0.620046875
vt 0.42578125 0.62109375
vt 0.190359375 0.655821875
vt 0.192453125 0.655821875
vt 0.192034375 0.993325
vt 0.190778125 0.993325
vt 0.190778125 0.993325
vt 0.192034375 0.993325
vt 0.19140625 1
vt 0.422921875 0.623953125
vt 0.421875 0.622140625
vt 0.42578125 0.62109375
vt 0.192453125 0.655821875
vt 0.1945468685537344 0.6558270705457467
vt 0.19329062113224066 0.9933281173274481
vt 0.192034375 0.9933249999999999
vt 0.192034375 0.993325
vt 0.19326857203802844 0.9935593538645335
vt 0.19140625 1
vt 0.424734375 0.625
vt 0.422921875 0.623953125
vt 0.42578125 0.62109375
vt 0.1882656314462656 0.6558270705457467
vt 0.190359375 0.655821875
vt 0.190778125 0.9933249999999999
vt 0.18952187886775934 0.9933281173274481
vt 0.18954392796197156 0.9935593538645335
vt 0.190778125 0.993325
vt 0.19140625 1
vt 0.45703125 0.90234375
vt 0.45703125 0.90625
vt 0.453125 0.90625
vt 0.453125 0.90234375
vt 0.390625 0.62890625
vt 0.40234375 0.62890625
vt 0.40234375 0.640625
vt 0.390625 0.640625
vt 0.30859375 0.711940625
vt 0.30859375 0.747096875
vt 0.296875 0.747096875
vt 0.296875 0.711940625
vt 0.33984375 0.981471875
vt 0.328125 0.981471875
vt 0.328125 0.946315625
vt 0.33984375 0.946315625
vt 0.30859375 0.747096875
vt 0.3046875 0.765625
vt 0.30078125 0.765625
vt 0.296875 0.747096875
vt 0.3359375 1
vt 0.33203125 1
vt 0.328125 0.981471875
vt 0.33984375 0.981471875
vt 0.296875 0.6942546875
vt 0.30859375 0.6942546875
vt 0.30859375 0.711940625
vt 0.296875 0.711940625
vt 0.328125 0.946315625
vt 0.328125 0.9286296875
vt 0.33984375 0.9286296875
vt 0.33984375 0.946315625
vt 0.33984375 0.887721875
vt 0.328125 0.887721875
vt 0.328125 0.852565625
vt 0.33984375 0.852565625
vt 0.3359375 0.90625
vt 0.33203125 0.90625
vt 0.328125 0.887721875
vt 0.33984375 0.887721875
vt 0.328125 0.852565625
vt 0.328125 0.8348796875
vt 0.33984375 0.8348796875
vt 0.33984375 0.852565625
vt 0.359375 0.6178328125
vt 0.3621375 0.6178328125
vt 0.3621375 0.6529890625
vt 0.359375 0.6529890625
vt 0.18864375 0.6061140625
vt 0.18864375 0.5709578125
vt 0.19140625 0.5709578125
vt 0.19140625 0.6061140625
vt 0.18864375 0.5709578125
vt 0.190025 0.5533265625
vt 0.19140625 0.5709578125
vt 0.359375 0.6178328125
vt 0.36075625 0.6002015625
vt 0.3621375 0.6178328125
vt 0.19140625 0.6061140625
vt 0.190025 0.625
vt 0.18864375 0.6061140625
vt 0.3621375 0.6529890625
vt 0.36075625 0.671875
vt 0.359375 0.6529890625
vt 0.33984375 0.758815625
vt 0.33984375 0.793971875
vt 0.328125 0.793971875
vt 0.328125 0.758815625
vt 0.33984375 0.793971875
vt 0.3359375 0.8125
vt 0.33203125 0.8125
vt 0.328125 0.793971875
vt 0.328125 0.7411296875
vt 0.33984375 0.7411296875
vt 0.33984375 0.758815625
vt 0.328125 0.758815625
vt 0.21989375 0.6061140625
vt 0.21989375 0.5709578125
vt 0.22265625 0.5709578125
vt 0.22265625 0.6061140625
vt 0.390625 0.9459578125
vt 0.3933875 0.9459578125
vt 0.3933875 0.9811140625
vt 0.390625 0.9811140625
vt 0.39200625 0.9283265625
vt 0.3933875 0.9459578125
vt 0.390625 0.9459578125
vt 0.221275 0.5533265625
vt 0.22265625 0.5709578125
vt 0.21989375 0.5709578125
vt 0.39200625 1
vt 0.390625 0.9811140625
vt 0.3933875 0.9811140625
vt 0.221275 0.625
vt 0.21989375 0.6061140625
vt 0.22265625 0.6061140625
vt 0.140625 0.9454655181690743
vt 0.1497483227688532 0.9454197636968193
vt 0.1433353724166375 0.9976885197493974
vt 0.140625 0.9454655181690743
vt 0.15088281322646488 0.8983578745987112
vt 0.15809531033371768 0.8983514148874134
vt 0.14972808776295138 0.9454198651776109
vt 0.15088281322646488 0.8983578745987112
vt 0.15203834169119224 0.8601891178113876
vt 0.16145552087589768 0.8601766032875541
vt 0.15809531101071042 0.8983514148868071
vt 0.15203834169119224 0.8601891178113876
vt 0.14372896669119223 0.8220125553113876
vt 0.15800084169119225 0.8220125553113876
vt 0.16144459169119224 0.8601766178113877
vt 0.1436117606108306 0.8222293966466829
vt 0.140625 0.7890625
vt 0.14081002474494875 0.7894168966466829
vt 0.15792529139494024 0.822229396646683
vt 0.1500693831784744 0.945479474899035
vt 0.15490217846774001 0.9454665771392159
vt 0.14382765854078564 0.9977681939608498
vt 0.1500693831784744 0.945479474899035
vt 0.1582046121183898 0.8983654084007033
vt 0.16657645730425633 0.8983430656276316
vt 0.1549037409621756 0.9454665729692322
vt 0.1582046121183898 0.8983654084007033
vt 0.16144490250250818 0.8601800622607486
vt 0.1711104930810394 0.8601542667411104
vt 0.16657645730425633 0.8983430656276316
vt 0.16144490250250818 0.8601800622607486
vt 0.15800084169119225 0.8220125553113876
vt 0.16637268687705875 0.8219902125383158
vt 0.1711104930810394 0.8601542667411104
vt 0.15800084169119225 0.8220125553113876
vt 0.14110203711967406 0.7890762999054233
vt 0.14593482991709114 0.7890625
vt 0.16637112452845987 0.8219902167079104
vt 0.2826796875 0.618415625
vt 0.2837265625 0.618415625
vt 0.283203125 0.671875
vt 0.2826796875 0.618415625
vt 0.282296875 0.5698703125
vt 0.284109375 0.5698703125
vt 0.2837265625 0.618415625
vt 0.282296875 0.5698703125
vt 0.28215625 0.5314125
vt 0.28425 0.5314125
vt 0.284109375 0.5698703125
vt 0.28215625 0.5314125
vt 0.282296875 0.49295625
vt 0.284109375 0.49295625
vt 0.28425 0.5314125
vt 0.282296875 0.49295625
vt 0.28267968749999994 0.4542046875
vt 0.28372656249999995 0.4542046875
vt 0.284109375 0.49295625
vt 0.06378339212262568 0.9454704242781602
vt 0.0686161874591214 0.9454833043286826
vt 0.0748581037035682 0.9977720005179684
vt 0.06378339212262568 0.9454704242781602
vt 0.0521105031012269 0.8983469597103818
vt 0.060482348368910074 0.8983692718056611
vt 0.06861774995357227 0.9454833084929407
vt 0.0521105031012269 0.8983469597103818
vt 0.047576327385426505 0.8601581774386392
vt 0.05724191805841795 0.8601839375396839
vt 0.06048234836891008 0.8983692718056611
vt 0.047576327385426505 0.8601581774386392
vt 0.052313993741002006 0.8219941058748823
vt 0.06068583900868518 0.8220164179701616
vt 0.05724191805841795 0.8601839375396839
vt 0.052313993741002006 0.8219941058748823
vt 0.07274402065093243 0.7890625
vt 0.07757681598742815 0.7890753800505224
vt 0.06068427651423433 0.8220164138059034
vt 0.06900163100255684 0.9454262862487358
vt 0.078125 0.9454616409216834
vt 0.07547415888160527 0.9976876981542598
vt 0.06900163100255684 0.9454262862487358
vt 0.06062115147549778 0.8983570698776183
vt 0.06783365011628008 0.898361497824492
vt 0.07810473606109389 0.9454615623953263
vt 0.06062115147549778 0.8983570698776183
vt 0.05724191805841795 0.8601839375396839
vt 0.06665910231025339 0.8601917591212884
vt 0.0678336502855283 0.898361497824596
vt 0.05724191805841795 0.8601839375396839
vt 0.06068566805841795 0.8220183125396839
vt 0.07495754305841795 0.8220183125396839
vt 0.06664816805841794 0.8601917500396838
vt 0.06072056961892915 0.8219617067929423
vt 0.0771268196189292 0.7892398069625755
vt 0.07776839493145865 0.789453125
vt 0.07500000000000001 0.8219691272475742
vt 0.09375 0.6266453125
vt 0.1015625 0.6266453125
vt 0.1010390625 0.664828125
vt 0.0942734375 0.664828125
vt 0.0942734375 0.587578125
vt 0.1010390625 0.587578125
vt 0.1015625 0.6266453125
vt 0.09375 0.6266453125
vt 0.095703125 0.5546875
vt 0.099609375 0.5546875
vt 0.1010390625 0.587578125
vt 0.0942734375 0.587578125
vt 0.0942734375 0.664828125
vt 0.1010390625 0.664828125
vt 0.099609375 0.7130171875
vt 0.095703125 0.7130171875
vt 0.099609375 0.7130171875
vt 0.09765625 0.7652734375
vt 0.095703125 0.7130171875
vt 0.4536484375 0.934434375
vt 0.4565078125 0.934434375
vt 0.45703125 0.9348453125
vt 0.453125 0.9348453125
vt 0.4545546875 0.9296875
vt 0.4556015625 0.9296875
vt 0.4565078125 0.934434375
vt 0.4536484375 0.934434375
vt 0.2514296875 0.618415625
vt 0.2524765625 0.618415625
vt 0.251953125 0.671875
vt 0.2514296875 0.618415625
vt 0.251046875 0.5698703125
vt 0.252859375 0.5698703125
vt 0.2524765625 0.618415625
vt 0.251046875 0.5698703125
vt 0.25090625 0.5314125
vt 0.253 0.5314125
vt 0.252859375 0.5698703125
vt 0.25090625 0.5314125
vt 0.251046875 0.49295625
vt 0.252859375 0.49295625
vt 0.253 0.5314125
vt 0.251046875 0.49295625
vt 0.25142968749999994 0.4542046875
vt 0.25247656249999995 0.4542046875
vt 0.252859375 0.49295625
vt 0.10287336899744316 0.9454243875149553
vt 0.10770617414258785 0.9454328189572657
vt 0.09640093392346137 0.9976850500805141
vt 0.11125384852450222 0.8983551711438378
vt 0.11962569639506683 0.8983764842324888
vt 0.10770741001031699 0.9454384827092605
vt 0.1028730506763254 0.9454261753751271
vt 0.11463308194158206 0.8601820388059034
vt 0.12429870238675733 0.8601914223252112
vt 0.11962570474885201 0.8983634662041606
vt 0.11125383369401057 0.8983553386748281
vt 0.11118933194158205 0.8220164138059034
vt 0.11956117720926523 0.821994101710624
vt 0.12429884356484072 0.860158173274381
vt 0.11463325289184928 0.8601839333754258
vt 0.09429679246838824 0.7890753800505224
vt 0.09912958780488396 0.7890625
vt 0.11955961471481437 0.8219941058748823
vt 0.11118933194158205 0.8220164138059034
vt 0.09375 0.9454597421879029
vt 0.10287336899744316 0.9454243875149553
vt 0.09640084111839473 0.9976857994204793
vt 0.10404134988371992 0.8983595990907115
vt 0.11125384852450222 0.8983551711438378
vt 0.10287336899744316 0.9454243875149553
vt 0.09377026393890611 0.9454596636615457
vt 0.10521589768974661 0.8601898603875078
vt 0.11463308194158206 0.8601820388059034
vt 0.11125384852450222 0.8983551711438378
vt 0.1040413497144717 0.8983595990908154
vt 0.09691745694158205 0.8220164138059034
vt 0.11118933194158205 0.8220164138059034
vt 0.11463308194158206 0.8601820388059034
vt 0.10522683194158206 0.8601898513059033
vt 0.0947265625 0.7890625
vt 0.09443990542077965 0.7904442269425958
vt 0.111328125 0.822265625
vt 0.0966796875 0.822265625
vt 0.01690839212262568 0.9454704242781602
vt 0.02174118745912141 0.9454833043286826
vt 0.027983103703568202 0.9977720005179684
vt 0.01690839212262568 0.9454704242781602
vt 0.005235503101226897 0.8983469597103818
vt 0.013607348368910074 0.8983692718056611
vt 0.02174274995357227 0.9454833084929407
vt 0.005235503101226897 0.8983469597103818
vt 0.0007013273854265048 0.8601581774386392
vt 0.010366918058417947 0.8601839375396839
vt 0.013607348368910081 0.8983692718056611
vt 0.0007013273854265048 0.8601581774386392
vt 0.005438993741002006 0.8219941058748823
vt 0.013810839008685183 0.8220164179701616
vt 0.010366918058417947 0.8601839375396839
vt 0.005438993741002006 0.8219941058748823
vt 0.025869020650932422 0.7890625
vt 0.030701815987428143 0.7890753800505224
vt 0.013809276514234331 0.8220164138059034
vt 0.022126631002556837 0.9454262862487358
vt 0.03125 0.9454616409216834
vt 0.028599158881605274 0.9976876981542598
vt 0.022126631002556837 0.9454262862487358
vt 0.013746151475497778 0.8983570698776183
vt 0.020958650116280078 0.898361497824492
vt 0.031229736061093895 0.9454615623953263
vt 0.013746151475497778 0.8983570698776183
vt 0.010366918058417947 0.8601839375396839
vt 0.01978410231025339 0.8601917591212884
vt 0.020958650285528305 0.898361497824596
vt 0.010366918058417947 0.8601839375396839
vt 0.01381066805841795 0.8220183125396839
vt 0.028082543058417946 0.8220183125396839
vt 0.019773168058417945 0.8601917500396838
vt 0.013454944618929193 0.8223523317929423
vt 0.030642444618929163 0.7892398069625755
vt 0.031674644931458606 0.7890625
vt 0.02812500000000001 0.8223597522475743
vt 0.068359375 0.7130171875
vt 0.06640625 0.7652734375
vt 0.064453125 0.7130171875
vt 0.0630234375 0.664828125
vt 0.0697890625 0.664828125
vt 0.068359375 0.7130171875
vt 0.064453125 0.7130171875
vt 0.0625 0.6266453125
vt 0.0703125 0.6266453125
vt 0.0697890625 0.664828125
vt 0.0630234375 0.664828125
vt 0.0630234375 0.587578125
vt 0.0697890625 0.587578125
vt 0.0703125 0.6266453125
vt 0.0625 0.6266453125
vt 0.064453125 0.5546875
vt 0.068359375 0.5546875
vt 0.0697890625 0.587578125
vt 0.0630234375 0.587578125
vt 0.4556015625 0.9609375
vt 0.4565078125 0.965684375
vt 0.4536484375 0.965684375
vt 0.4545546875 0.9609375
vt 0.4536484375 0.965684375
vt 0.4565078125 0.965684375
vt 0.45703125 0.9660953125
vt 0.453125 0.9660953125
vt 0.31821875 0.625
vt 0.32240625 0.625
vt 0.3203125 0.6328125
vt 0.13071875 0.67155
vt 0.13490625 0.67155
vt 0.1328125 0.765625
vt 0.32240625 0.640625
vt 0.31821875 0.640625
vt 0.3203125 0.6328125
vt 0.16196875 0.67155
vt 0.16615625 0.67155
vt 0.1640625 0.765625
vt 0.32240625 0.625
vt 0.32603125 0.62709375
vt 0.3203125 0.6328125
vt 0.12653539639757094 0.6717363032126504
vt 0.13071875 0.67155
vt 0.1328125 0.765625
vt 0.32603125 0.62709375
vt 0.328125 0.63071875
vt 0.3203125 0.6328125
vt 0.25990625 0.905925
vt 0.26408960360242906 0.9061113032126504
vt 0.2578125 1
vt 0.328125 0.63071875
vt 0.328125 0.63490625
vt 0.3203125 0.6328125
vt 0.25571875 0.905925
vt 0.25990625 0.905925
vt 0.2578125 1
vt 0.328125 0.63490625
vt 0.32603125 0.63853125
vt 0.3203125 0.6328125
vt 0.25153539639757094 0.9061113032126504
vt 0.25571875 0.905925
vt 0.2578125 1
vt 0.32603125 0.63853125
vt 0.32240625 0.640625
vt 0.3203125 0.6328125
vt 0.16615625 0.67155
vt 0.17033960360242906 0.6717363032126504
vt 0.1640625 0.765625
vt 0.31459375 0.62709375
vt 0.31821875 0.625
vt 0.3203125 0.6328125
vt 0.13490625 0.67155
vt 0.13908960360242906 0.6717363032126504
vt 0.1328125 0.765625
vt 0.3125 0.63071875
vt 0.31459375 0.62709375
vt 0.3203125 0.6328125
vt 0.25153539639757094 0.7811113032126504
vt 0.25571875 0.780925
vt 0.2578125 0.875
vt 0.3125 0.63490625
vt 0.3125 0.63071875
vt 0.3203125 0.6328125
vt 0.25571875 0.780925
vt 0.25990625 0.780925
vt 0.2578125 0.875
vt 0.31459375 0.63853125
vt 0.3125 0.63490625
vt 0.3203125 0.6328125
vt 0.25990625 0.780925
vt 0.26408960360242906 0.7811113032126504
vt 0.2578125 0.875
vt 0.31821875 0.640625
vt 0.31459375 0.63853125
vt 0.3203125 0.6328125
vt 0.15778539639757094 0.6717363032126504
vt 0.16196875 0.67155
vt 0.1640625 0.765625
vt 0.2853932438167893 0.983105429878641
vt 0.29017101246306076 0.9830470751159379
vt 0.2869870548184086 0.996790110431111
vt 0.2853932438167893 0.983105429878641
vt 0.2872592851720832 0.9666953097543896
vt 0.2921686267702251 0.9666771999951805
vt 0.29015868653499216 0.9830472256624924
vt 0.2872592851720832 0.9666953097543896
vt 0.28777557943066273 0.9567443673276661
vt 0.2938411390249006 0.9567161990942563
vt 0.2921670665193788 0.966677205750691
vt 0.28777557943066273 0.9567443673276661
vt 0.2845958919306627 0.9467724923276661
vt 0.2920787044306627 0.9467724923276661
vt 0.2938318294306627 0.9567162423276662
vt 0.2846067835671903 0.946398995108793
vt 0.28125 0.9375
vt 0.2855649250600462 0.9377156891834135
vt 0.2920787044306627 0.9467724923276661
vt 0.29094534085078194 0.9831542191968525
vt 0.2935808313947926 0.9831056795600911
vt 0.288376905885616 0.9970257428933231
vt 0.29094534085078194 0.9831542191968525
vt 0.2924461900505309 0.9667253584972592
vt 0.2970126031270828 0.9666412557359942
vt 0.2935823936298513 0.9831056507873366
vt 0.2924461900505309 0.9667253584972592
vt 0.29383249347458057 0.9567200087942378
vt 0.2991050367976605 0.9566229007479604
vt 0.2970126031270828 0.9666412557359942
vt 0.29383249347458057 0.9567200087942378
vt 0.2920787044306627 0.9467724923276661
vt 0.29664511750721456 0.9466883895664012
vt 0.2991050367976605 0.9566229007479604
vt 0.2920787044306627 0.9467724923276661
vt 0.2855655103158365 0.9377165029270453
vt 0.2882009840937254 0.9376670613456967
vt 0.2966435555394788 0.9466884183342322
vt 0.4233046875 0.983221875
vt 0.4243515625 0.983221875
vt 0.423828125 0.9980734375
vt 0.4233046875 0.983221875
vt 0.422921875 0.966409375
vt 0.424734375 0.966409375
vt 0.4243515625 0.983221875
vt 0.422921875 0.966409375
vt 0.42278125 0.9561765625
vt 0.424875 0.9561765625
vt 0.424734375 0.966409375
vt 0.42278125 0.9561765625
vt 0.422921875 0.94594375
vt 0.424734375 0.94594375
vt 0.424875 0.9561765625
vt 0.422921875 0.94594375
vt 0.4233046875 0.93359375
vt 0.4243515625 0.93359375
vt 0.424734375 0.94594375
vt 0.28845454184532215 0.8268543921062858
vt 0.29108999707080757 0.8269048129191316
vt 0.2936485300180613 0.8407781664066576
vt 0.28845454184532215 0.8268543921062858
vt 0.2850223595469165 0.8103913173707257
vt 0.29062684820330764 0.8105318376998002
vt 0.2910853568120595 0.8269047241429629
vt 0.2850223595469165 0.8103913173707257
vt 0.28292938769276327 0.8003730748028023
vt 0.288201936224885 0.8004698996076149
vt 0.2906129158139234 0.8105314883755244
vt 0.28292938769276327 0.8003730748028023
vt 0.28538877329715895 0.7904384314885748
vt 0.2899551908851269 0.7905222889417505
vt 0.288201936224885 0.8004698996076149
vt 0.28538877329715895 0.7904384314885748
vt 0.29383086010292436 0.7814166209776424
vt 0.296466336533015 0.7814659209811198
vt 0.28995362891584797 0.7905222602578286
vt 0.29194035972691706 0.8267979001673837
vt 0.2967183464828344 0.8268342467752459
vt 0.2951875872744949 0.8405261236216871
vt 0.29194035972691706 0.8267979001673837
vt 0.2909679349656852 0.8104472608466409
vt 0.2948085468482465 0.8104372230105064
vt 0.29667953263689606 0.8268339515145617
vt 0.2909679349656852 0.8104472608466409
vt 0.288201936224885 0.8004698996076149
vt 0.2942675321553962 0.8004886785423844
vt 0.2947992343285652 0.8104372473497391
vt 0.288201936224885 0.8004698996076149
vt 0.289955061224885 0.7905230246076149
vt 0.297437873724885 0.7905230246076149
vt 0.29425818622488503 0.800488649607615
vt 0.28995304370377284 0.7905230740328991
vt 0.296466336533015 0.7814659209811198
vt 0.30078125 0.78125
vt 0.2974249444921722 0.7901491754225549
vt 0.4545546875 0.83984375
vt 0.4556015625 0.83984375
vt 0.4565078125 0.84375
vt 0.4536484375 0.84375
vt 0.3598984375 0.6953125
vt 0.3666640625 0.6953125
vt 0.3671875 0.7057640625
vt 0.359375 0.7057640625
vt 0.359375 0.7057640625
vt 0.3671875 0.7057640625
vt 0.3666640625 0.7157156250000001
vt 0.3598984375 0.7157156250000001
vt 0.3598984375 0.7157156250000001
vt 0.3666640625 0.7157156250000001
vt 0.365234375 0.73216875
vt 0.361328125 0.73216875
vt 0.12890625 0.5769213349930506
vt 0.125 0.5633711003148125
vt 0.1258154484299597 0.546875
vt 0.12890625 0.5475447407460863
vt 0.421875 0.5603228331620459
vt 0.438300484868247 0.55859375
vt 0.45196765193025223 0.5603228331620459
vt 0.001953125 1
vt 0 0.9863625
vt 0.00390625 0.9863625
vt 0.424734375 0.5859375
vt 0.426828125 0.5859375
vt 0.42578125 0.58984375
vt 0.393484375 0.8356140625
vt 0.395578125 0.8356140625
vt 0.39453125 0.859375
vt 0.426828125 0.59375
vt 0.424734375 0.59375
vt 0.42578125 0.58984375
vt 0.393484375 0.7106140625
vt 0.395578125 0.7106140625
vt 0.39453125 0.734375
vt 0.426828125 0.5859375
vt 0.428640625 0.586984375
vt 0.42578125 0.58984375
vt 0.3913987378811419 0.8357982006843647
vt 0.393484375 0.8356140625
vt 0.39453125 0.859375
vt 0.428640625 0.586984375
vt 0.4296875 0.588796875
vt 0.42578125 0.58984375
vt 0.317453125 0.5856140625
vt 0.3195387621188581 0.5857982006843647
vt 0.31640625 0.609375
vt 0.4296875 0.588796875
vt 0.4296875 0.590890625
vt 0.42578125 0.58984375
vt 0.315359375 0.5856140625
vt 0.317453125 0.5856140625
vt 0.31640625 0.609375
vt 0.4296875 0.590890625
vt 0.428640625 0.592703125
vt 0.42578125 0.58984375
vt 0.3132737378811419 0.5857982006843647
vt 0.315359375 0.5856140625
vt 0.31640625 0.609375
vt 0.428640625 0.592703125
vt 0.426828125 0.59375
vt 0.42578125 0.58984375
vt 0.395578125 0.7106140625
vt 0.3976637621188581 0.7107982006843647
vt 0.39453125 0.734375
vt 0.422921875 0.586984375
vt 0.424734375 0.5859375
vt 0.42578125 0.58984375
vt 0.395578125 0.8356140625
vt 0.3976637621188581 0.8357982006843647
vt 0.39453125 0.859375
vt 0.421875 0.588796875
vt 0.422921875 0.586984375
vt 0.42578125 0.58984375
vt 0.3913987378811419 0.6639232006843647
vt 0.393484375 0.6637390625
vt 0.39453125 0.6875
vt 0.421875 0.590890625
vt 0.421875 0.588796875
vt 0.42578125 0.58984375
vt 0.393484375 0.6637390625
vt 0.395578125 0.6637390625
vt 0.39453125 0.6875
vt 0.422921875 0.592703125
vt 0.421875 0.590890625
vt 0.42578125 0.58984375
vt 0.395578125 0.6637390625
vt 0.3976637621188581 0.6639232006843647
vt 0.39453125 0.6875
vt 0.424734375 0.59375
vt 0.422921875 0.592703125
vt 0.42578125 0.58984375
vt 0.3913987378811419 0.7107982006843647
vt 0.393484375 0.7106140625
vt 0.39453125 0.734375
vn 0 -0.40437181898029184 0.9145946818206251
vn 0 -0.24479818812280235 0.9695740544650486
vn 0 -0.24191764164982357 0.9702967868949106
vn 0 0.2419176416498233 0.9702967868949108
vn 0 0.7246901113428861 0.6890749179311605
vn 0 1 1.2246467991473532e-16
vn 0.9228171663879907 -0.18496173156226814 0.3379314061716181
vn 0.9558261481032898 -0.09287451550944595 0.27887398403385294
vn 0.9344748079629666 -0.09850625784039996 0.34213060437332643
vn 0.9344726783060995 0.09850758288261886 0.34213603963050915
vn 0.8706778785330328 0.37451596692949735 0.31883823852869553
vn 0.9686415596341381 -0.07966097572066244 0.23534582617241512
vn 0.9811557583453379 -0.08816461383643047 0.171931319813634
vn 0.9908259413146436 0.060305914537764294 0.12094275790519353
vn 0.9687000835914936 0.21827812924918114 0.11821508508355198
vn -0.9228171663879907 -0.18496173156226814 0.3379314061716181
vn -0.9558261481032898 -0.09287451550944595 0.278873984033853
vn -0.9344748079629666 -0.09850625784039996 0.34213060437332643
vn -0.9344726783060995 0.09850758288261886 0.34213603963050915
vn -0.8706778785330328 0.3745159669294974 0.31883823852869553
vn -0.9852984816456849 -0.13192766659862276 0.10854488865234871
vn -0.9686415596341381 -0.07966097572066244 0.23534582617241503
vn -0.9811557583453379 -0.08816461383643046 0.17193131981363396
vn -0.9908259413146436 0.06030591453776429 0.12094275790519353
vn -0.9687000835914936 0.21827812924918105 0.11821508508355195
vn -0.5352231443519588 -0.08435098576266323 0.8404886060803378
vn 0.9830152895696144 -0.06331198306025679 0.17225717190684667
vn 0 -0.3124628100316082 -0.9499299933927507
vn 0.9852984816456849 -0.13192766659862276 0.10854488865234871
vn 0 0.06665135808076962 -0.9977763258696756
vn 0 0.13547977155138083 -0.9907801125882503
vn 0 -1 -1.2246467991473532e-16
vn 0 0.004629580015912112 -0.9999892834370158
vn 0 0.35112344158839276 -0.9363291775690442
vn 0 -1 -1.2246467991473532e-16
vn 0 0.004629580015912115 0.9999892834370158
vn 0 0.35112344158839254 0.9363291775690442
vn 0 -1 -1.2246467991473532e-16
vn 0.5000272331651094 0.0046293053859069845 -0.8659973069385893
vn 0.46811941461614953 0.3511255551402928 -0.8109100185512907
vn 0 -1 -1.2246467991473532e-16
vn 0.8659973055531783 0.00462965094364373 -0.5000272323651733
vn 0.8109100185512906 0.35112555514029287 -0.46811941461614975
vn 0 -1 -1.2246467991473532e-16
vn 0.9999892834370159 0.0046295800159121105 5.669600347883318e-19
vn 0.9363291775690442 0.35112344158839276 4.3000219884682784e-17
vn 0 -1 -1.2246467991473532e-16
vn 0.8659973069385887 0.0046293053859069785 0.5000272331651108
vn 0.8109100185512906 0.3511255551402927 0.46811941461614986
vn 0 -1 -1.2246467991473532e-16
vn 0.5000272323651739 0.004629650943643729 0.865997305553178
vn 0.46811941461614964 0.35112555514029264 0.810910018551291
vn 0 -1 -1.2246467991473532e-16
vn -0.5000272331651094 0.0046293053859069845 -0.8659973069385893
vn -0.46811941461614953 0.3511255551402928 -0.8109100185512907
vn 0 -1 -1.2246467991473532e-16
vn -0.8659973055531783 0.00462965094364373 -0.5000272323651733
vn -0.8109100185512906 0.3511255551402928 -0.46811941461614975
vn 0 -1 -1.2246467991473532e-16
vn -0.9999892834370158 0.00462958001591211 5.669600347883317e-19
vn -0.9363291775690442 0.35112344158839276 4.3000219884682784e-17
vn 0 -1 -1.2246467991473532e-16
vn -0.8659973069385887 0.004629305385906979 0.5000272331651108
vn -0.8109100185512906 0.35112555514029276 0.46811941461614986
vn 0 -1 -1.2246467991473532e-16
vn -0.5000272323651739 0.004629650943643729 0.865997305553178
vn -0.46811941461614964 0.35112555514029264 0.810910018551291
vn 0 1 1.2246467991473532e-16
vn 0 -1 -1.2246467991473532e-16
vn 0 7.490830224084805e-17 1
vn 0 -7.490830224084805e-17 -1
vn 0 0.3162277660168379 0.948683298050514
vn 0 0.31622776601683805 -0.9486832980505138
vn 0 -0.11043152607484667 0.9938837346736189
vn 0 -0.11043152607484642 -0.9938837346736189
vn 1 0 0
vn 0.948683298050514 0.316227766016838 3.872673214540388e-17
vn 0.9938837346736189 -0.11043152607484655 -1.352396149325183e-17
vn 0.7071067811865476 -5.29681684816751e-17 -0.7071067811865476
vn 0.7071067811865476 5.29681684816751e-17 0.7071067811865476
vn 0.7049344049891616 -0.07832604499879582 0.7049344049891616
vn 0.7049344049891616 -0.07832604499879565 -0.7049344049891616
vn 0.6581451817144176 0.3656362120635653 0.6581451817144176
vn 0.6581451817144176 0.3656362120635654 -0.6581451817144176
vn -1 0 0
vn -0.948683298050514 0.316227766016838 3.872673214540388e-17
vn -0.9938837346736189 -0.11043152607484655 -1.352396149325183e-17
vn -0.7071067811865476 -5.29681684816751e-17 -0.7071067811865476
vn -0.7071067811865476 5.29681684816751e-17 0.7071067811865476
vn -0.7049344049891616 -0.07832604499879582 0.7049344049891616
vn -0.7049344049891616 -0.07832604499879565 -0.7049344049891616
vn -0.6581451817144176 0.3656362120635653 0.6581451817144176
vn -0.6581451817144176 0.3656362120635654 -0.6581451817144176
vn -0.9977507082196869 0.03476038648417398 0.05731701124957527
vn -0.9903817098229805 0.058307167373114456 0.1254764642514018
vn -0.9936543077755338 0.0173297565571886 0.11113413596547864
vn -0.9976005733512451 -0.027588500382123564 0.06349780071729093
vn -0.61359349491575 -0.10991367206071273 0.7819347848070232
vn -0.9809656626020551 0.05115850985812267 0.18732104971093777
vn -0.9807097425558092 0.05611450550047888 0.18724199082619097
vn -0.9819027273624478 0.02692989925503655 0.1874615014457648
vn -0.9819011841186714 -0.026930719434258992 0.18746946678620538
vn -0.9739714845471056 -0.12958097321254275 0.1859793501182263
vn 0 0.21543297789061933 0.9765186286175906
vn 0 0.2489357193361253 0.968520008899458
vn 0 0.1234551379633345 0.9923501543862703
vn 0 -0.12345563572996245 0.9923500924605747
vn 0 -0.5363180909871123 0.8440159389963792
vn 0.9809656626020551 0.05115850985812267 0.18732104971093755
vn 0.9807095747969569 0.056117544204077385 0.18724195879683472
vn 0.9819026802973909 0.02693167780457761 0.1874614924602654
vn 0.9819011297702656 -0.026932773145634803 0.18746945640973672
vn 0.9739707273915851 -0.12958687160010468 0.18597920553977199
vn 0.9977507082196871 0.034760386484174 0.05731701124957504
vn 0.9910622624269841 0.04505112264387213 0.12556268690034647
vn 0.9936028619756433 0.020095655566530785 0.11112838206849918
vn 0.9978558301553049 -0.015802149804805102 0.06351404794700255
vn 0.56587453225424 -0.39970767469264507 0.7211239758445449
vn 0 -0.03331769150725697 -0.9994448115992336
vn 0 0.21397908119893963 -0.9768382429088542
vn 0 0.10566622075550869 -0.9944016541575382
vn 0 -0.21919230314337546 -0.9756816766972223
vn 0 0.044773300811260665 -0.9989971729361724
vn 0 -1 -1.2246467991473532e-16
vn 0 -1 -1.2246467991473532e-16
vn 0 0.21543297789061938 -0.9765186286175906
vn 0 0.24893571933612524 -0.968520008899458
vn 0 0.12345513796333449 -0.9923501543862703
vn 0 -0.12345563572996257 -0.9923500924605747
vn 0 -0.5363180909871121 -0.8440159389963793
vn 0.9809656626020551 0.051158509858122585 -0.18732104971093724
vn 0.9807095747969569 0.05611754420407737 -0.1872419587968348
vn 0.981902680297391 0.026931677804577604 -0.18746149246026547
vn 0.9819011297702656 -0.026932773145634813 -0.1874694564097368
vn 0.9739707273915851 -0.1295868716001046 -0.18597920553977204
vn 0.9977507082196869 0.03476038648417399 -0.057317011249575174
vn 0.9910622624269841 0.04505112264387212 -0.12556268690034644
vn 0.9936028619756433 0.02009565556653078 -0.1111283820684993
vn 0.9978558301553049 -0.015802149804805116 -0.06351404794700266
vn 0.5658745322542408 -0.3997076746926448 -0.7211239758445444
vn -0.9809656626020551 0.05115850985812259 -0.18732104971093724
vn -0.9807095747969569 0.056117544204077364 -0.18724195879683483
vn -0.981902680297391 0.026931677804577604 -0.18746149246026544
vn -0.9819011297702656 -0.02693277314563482 -0.1874694564097368
vn -0.9739707273915851 -0.12958687160010468 -0.18597920553977212
vn -0.9977507082196869 0.03476038648417399 -0.057317011249575174
vn -0.9910622624269841 0.04505112264387213 -0.12556268690034644
vn -0.9936028619756433 0.02009565556653078 -0.11112838206849932
vn -0.9978558301553049 -0.015802149804805116 -0.06351404794700267
vn -0.5658745322542401 -0.3997076746926451 -0.7211239758445449
vn 0 0.04477330081126068 0.9989971729361724
vn 0 -0.21919230314337534 0.9756816766972222
vn 0 -0.03331769150725713 0.9994448115992336
vn 0 0.21397908119893977 0.9768382429088542
vn 0 0.10566622075550865 0.9944016541575382
vn 0 -1 -1.2246467991473532e-16
vn 0 -1 -1.2246467991473532e-16
vn 0 1 1.2246467991473532e-16
vn 0 -0.08304547985374014 0.9965457582448798
vn 0 1 1.2246467991473532e-16
vn 0 -0.08304547985373983 -0.9965457582448798
vn 0 1 1.2246467991473532e-16
vn 0.49824524134251136 -0.08304580809534237 0.8630498671787942
vn 0 1 1.2246467991473532e-16
vn 0.8630498671787946 -0.08304580809534229 0.49824524134251064
vn 0 1 1.2246467991473532e-16
vn 0.9965457582448798 -0.08304547985373999 -1.0170138108653867e-17
vn 0 1 1.2246467991473532e-16
vn 0.8630498671787946 -0.08304580809534219 -0.49824524134251064
vn 0 1 1.2246467991473532e-16
vn 0.49824524134251014 -0.08304580809534212 -0.8630498671787951
vn 0 1 1.2246467991473532e-16
vn -0.49824524134251136 -0.08304580809534237 0.8630498671787942
vn 0 1 1.2246467991473532e-16
vn -0.8630498671787946 -0.0830458080953423 0.49824524134251064
vn 0 1 1.2246467991473532e-16
vn -0.9965457582448798 -0.08304547985373999 -1.0170138108653867e-17
vn 0 1 1.2246467991473532e-16
vn -0.8630498671787946 -0.08304580809534218 -0.49824524134251064
vn 0 1 1.2246467991473532e-16
vn -0.49824524134251014 -0.08304580809534212 -0.8630498671787951
vn -0.9852984816456849 -0.13192766659862254 -0.10854488865234878
vn -0.9767492026745828 -0.11077219992051192 -0.1835497610985565
vn -0.9830152895696144 -0.06331198306025676 -0.17225717190684675
vn -0.9884432134171169 0.09177760625558089 -0.12065191602141907
vn -0.9686951130534696 0.21830051538667514 -0.1182144785051223
vn -0.9228171663879908 -0.18496173156226786 -0.33793140617161804
vn -0.9335243175315927 -0.10822546805241705 -0.34178881877851075
vn -0.9344750550279147 -0.09850359986544309 -0.34213069482892716
vn -0.934472963588666 0.09850451378338371 -0.3421361440802697
vn -0.8706876091506425 0.3744903105200625 -0.31884180183615396
vn 0 -0.40437181898029145 -0.9145946818206251
vn 0 -0.2447981881228019 -0.9695740544650487
vn 0 -0.24191764164982388 -0.9702967868949106
vn 0 0.2419176416498234 -0.9702967868949106
vn 0 0.7246901113428857 -0.6890749179311607
vn 0.9228171663879908 -0.1849617315622681 -0.33793140617161815
vn 0.9558261481032898 -0.0928745155094459 -0.2788739840338529
vn 0.9344748079629664 -0.0985062578404002 -0.3421306043733265
vn 0.9344726783060995 0.09850758288261886 -0.34213603963050915
vn 0.8706778785330329 0.37451596692949707 -0.3188382385286955
vn 0.9852984816456849 -0.13192766659862276 -0.10854488865234875
vn 0.968641559634138 -0.07966097572066243 -0.23534582617241512
vn 0.981155758345338 -0.08816461383643066 -0.171931319813634
vn 0.9908259413146436 0.06030591453776419 -0.1209427579051935
vn 0.9687000835914936 0.21827812924918083 -0.11821508508355194
vn 0 1 1.2246467991473532e-16
vn 0 -0.31246281003160836 0.9499299933927505
vn 0 0.06665135808076976 0.9977763258696757
vn 0 0.1354797715513805 0.9907801125882504
vn -0.9640196870824346 0.11718437357312889 0.23860818407539652
vn 0.9640196870824346 0.11718437357312868 0.23860818407539663
vn 0 -0.08946960713959867 0.9959895528559956
vn 0 1 1.2246467991473532e-16
vn 0 -0.1643989873053574 0.9863939238321437
vn 0 1 1.2246467991473532e-16
vn 0 -0.16439898730535718 -0.9863939238321437
vn 0 1 1.2246467991473532e-16
vn 0.4932291720306884 -0.1643982386448551 0.8542237429317866
vn 0 1 1.2246467991473532e-16
vn 0.8542237429317866 -0.16439823864485506 0.4932291720306885
vn 0 1 1.2246467991473532e-16
vn 0.9863939238321437 -0.1643989873053573 -2.0133069358657217e-17
vn 0 1 1.2246467991473532e-16
vn 0.8542237429317869 -0.16439823864485492 -0.4932291720306878
vn 0 1 1.2246467991473532e-16
vn 0.4932291720306884 -0.16439823864485487 -0.8542237429317866
vn 0 1 1.2246467991473532e-16
vn -0.4932291720306884 -0.1643982386448551 0.8542237429317866
vn 0 1 1.2246467991473532e-16
vn -0.8542237429317866 -0.16439823864485506 0.4932291720306885
vn 0 1 1.2246467991473532e-16
vn -0.9863939238321437 -0.1643989873053573 -2.0133069358657217e-17
vn 0 1 1.2246467991473532e-16
vn -0.8542237429317869 -0.16439823864485492 -0.4932291720306878
vn 0 1 1.2246467991473532e-16
vn -0.4932291720306884 -0.16439823864485487 -0.8542237429317866
usemtl m_853bccb5-65c7-5dca-7d89-6b6b8f768802
f 2/1/1 17/2/1 1/3/1
f 2/4/2 3/5/2 18/6/2 17/7/2
f 3/8/3 4/9/3 19/10/3 18/11/3
f 4/12/4 5/13/4 20/14/4 19/15/4
f 5/16/5 6/17/5 21/18/5 20/19/5
f 21/20/6 6/21/6 11/22/6 26/23/6
f 7/24/7 2/25/7 1/26/7
f 8/27/8 3/28/8 2/29/8 7/30/8
f 9/31/9 4/32/9 3/33/9 8/34/9
f 10/35/10 5/36/10 4/37/10 9/38/10
f 11/39/11 6/40/11 5/41/11 10/42/11
f 13/43/12 8/44/12 7/45/12 12/46/12
f 14/47/13 9/48/13 8/49/13 13/50/13
f 15/51/14 10/52/14 9/53/14 14/54/14
f 16/55/15 11/56/15 10/57/15 15/58/15
f 17/59/16 22/60/16 1/61/16
f 17/62/17 18/63/17 23/64/17 22/65/17
f 18/66/18 19/67/18 24/68/18 23/69/18
f 19/70/19 20/71/19 25/72/19 24/73/19
f 20/74/20 21/75/20 26/76/20 25/77/20
f 22/78/21 27/79/21 1/80/21
f 22/81/22 23/82/22 28/83/22 27/84/22
f 23/85/23 24/86/23 29/87/23 28/88/23
f 24/89/24 25/90/24 30/91/24 29/92/24
f 25/93/25 26/94/25 31/95/25 30/96/25
f 8/97/26 29/98/26 28/99/26 13/100/26
f 13/101/27 14/102/27 9/103/27 8/104/27
f 30/105/28 15/106/28 14/107/28 29/108/28
f 7/109/29 1/110/29 12/111/29 27/112/29
f 29/113/30 14/114/30 13/115/30 28/116/30
f 28/117/31 13/118/31 12/119/31 27/120/31
f 46/121/32 34/122/32 32/123/32
f 34/124/33 46/125/33 47/126/33 35/127/33
f 35/128/34 47/129/34 33/130/34
f 44/131/35 56/132/35 32/133/35
f 56/134/36 44/135/36 45/136/36 57/137/36
f 57/138/37 45/139/37 33/140/37
f 34/141/38 36/142/38 32/143/38
f 37/144/39 36/145/39 34/146/39 35/147/39
f 37/148/40 35/149/40 33/150/40
f 36/151/41 38/152/41 32/153/41
f 39/154/42 38/155/42 36/156/42 37/157/42
f 39/158/43 37/159/43 33/160/43
f 38/161/44 40/162/44 32/163/44
f 41/164/45 40/165/45 38/166/45 39/167/45
f 41/168/46 39/169/46 33/170/46
f 40/171/47 42/172/47 32/173/47
f 43/174/48 42/175/48 40/176/48 41/177/48
f 43/178/49 41/179/49 33/180/49
f 42/181/50 44/182/50 32/183/50
f 45/184/51 44/185/51 42/186/51 43/187/51
f 45/188/52 43/189/52 33/190/52
f 48/191/53 46/192/53 32/193/53
f 46/194/54 48/195/54 49/196/54 47/197/54
f 47/198/55 49/199/55 33/200/55
f 50/201/56 48/202/56 32/203/56
f 48/204/57 50/205/57 51/206/57 49/207/57
f 49/208/58 51/209/58 33/210/58
f 52/211/59 50/212/59 32/213/59
f 50/214/60 52/215/60 53/216/60 51/217/60
f 51/218/61 53/219/61 33/220/61
f 54/221/62 52/222/62 32/223/62
f 52/224/63 54/225/63 55/226/63 53/227/63
f 53/228/64 55/229/64 33/230/64
f 56/231/65 54/232/65 32/233/65
f 54/234/66 56/235/66 57/236/66 55/237/66
f 55/238/67 57/239/67 33/240/67
f 58/241/68 59/242/68 71/243/68 70/244/68
f 73/245/69 61/246/69 60/247/69 72/248/69
f 68/249/70 69/250/70 81/251/70 80/252/70
f 79/253/71 67/254/71 66/255/71 78/256/71
f 69/257/72 58/258/72 70/259/72 81/260/72
f 71/261/73 59/262/73 67/263/73 79/264/73
f 72/265/74 60/266/74 68/267/74 80/268/74
f 66/269/75 61/270/75 73/271/75 78/272/75
f 65/273/76 63/274/76 62/275/76 64/276/76
f 59/277/77 58/278/77 63/279/77 65/280/77
f 62/281/78 60/282/78 61/283/78 64/284/78
f 64/285/79 66/286/79 67/287/79 65/288/79
f 69/289/80 68/290/80 62/291/80 63/292/80
f 68/293/81 60/294/81 62/295/81
f 64/296/82 61/297/82 66/298/82
f 63/299/83 58/300/83 69/301/83
f 67/302/84 59/303/84 65/304/84
f 74/305/85 75/306/85 77/307/85 76/308/85
f 75/309/86 70/310/86 71/311/86 77/312/86
f 73/313/87 72/314/87 74/315/87 76/316/87
f 79/317/88 78/318/88 76/319/88 77/320/88
f 74/321/89 80/322/89 81/323/89 75/324/89
f 72/325/90 80/326/90 74/327/90
f 73/328/91 76/329/91 78/330/91
f 70/331/92 75/332/92 81/333/92
f 71/334/93 79/335/93 77/336/93
f 83/337/94 88/338/94 82/339/94
f 83/340/95 84/341/95 89/342/95 88/343/95
f 84/344/96 85/345/96 90/346/96 89/347/96
f 85/348/97 86/349/97 91/350/97 90/351/97
f 86/352/98 87/353/98 92/354/98 91/355/98
f 88/356/99 93/357/99 82/358/99
f 88/359/100 89/360/100 94/361/100 93/362/100
f 89/363/101 90/364/101 95/365/101 94/366/101
f 90/367/102 91/368/102 96/369/102 95/370/102
f 91/371/103 92/372/103 97/373/103 96/374/103
f 93/375/104 98/376/104 82/377/104
f 93/378/105 94/379/105 99/380/105 98/381/105
f 94/382/106 95/383/106 100/384/106 99/385/106
f 95/386/107 96/387/107 101/388/107 100/389/107
f 96/390/108 97/391/108 102/392/108 101/393/108
f 98/394/109 103/395/109 82/396/109
f 98/397/110 99/398/110 104/399/110 103/400/110
f 99/401/111 100/402/111 105/403/111 104/404/111
f 100/405/112 101/406/112 106/407/112 105/408/112
f 101/409/113 102/410/113 107/411/113 106/412/113
f 103/413/114 108/414/114 82/415/114
f 103/416/115 104/417/115 109/418/115 108/419/115
f 104/420/116 105/421/116 110/422/116 109/423/116
f 105/424/117 106/425/117 111/426/117 110/427/117
f 106/428/118 107/429/118 112/430/118 111/431/118
f 110/432/119 85/433/119 84/434/119 109/435/119
f 111/436/120 86/437/120 85/438/120 110/439/120
f 112/440/121 87/441/121 86/442/121 111/443/121
f 109/444/122 84/445/122 83/446/122 108/447/122
f 83/448/123 82/449/123 108/450/123
f 107/451/124 92/452/124 87/453/124 112/454/124
f 102/455/125 97/456/125 92/457/125 107/458/125
f 114/459/126 129/460/126 113/461/126
f 114/462/127 115/463/127 130/464/127 129/465/127
f 115/466/128 116/467/128 131/468/128 130/469/128
f 116/470/129 117/471/129 132/472/129 131/473/129
f 117/474/130 118/475/130 133/476/130 132/477/130
f 119/478/131 114/479/131 113/480/131
f 120/481/132 115/482/132 114/483/132 119/484/132
f 121/485/133 116/486/133 115/487/133 120/488/133
f 122/489/134 117/490/134 116/491/134 121/492/134
f 123/493/135 118/494/135 117/495/135 122/496/135
f 124/497/136 119/498/136 113/499/136
f 125/500/137 120/501/137 119/502/137 124/503/137
f 126/504/138 121/505/138 120/506/138 125/507/138
f 127/508/139 122/509/139 121/510/139 126/511/139
f 128/512/140 123/513/140 122/514/140 127/515/140
f 129/516/141 134/517/141 113/518/141
f 129/519/142 130/520/142 135/521/142 134/522/142
f 130/523/143 131/524/143 136/525/143 135/526/143
f 131/527/144 132/528/144 137/529/144 136/530/144
f 132/531/145 133/532/145 138/533/145 137/534/145
f 134/535/146 139/536/146 113/537/146
f 134/538/147 135/539/147 140/540/147 139/541/147
f 135/542/148 136/543/148 141/544/148 140/545/148
f 136/546/149 137/547/149 142/548/149 141/549/149
f 137/550/150 138/551/150 143/552/150 142/553/150
f 124/554/151 113/555/151 139/556/151
f 140/557/152 125/558/152 124/559/152 139/560/152
f 141/561/153 126/562/153 125/563/153 140/564/153
f 142/565/154 127/566/154 126/567/154 141/568/154
f 143/569/155 128/570/155 127/571/155 142/572/155
f 118/573/156 123/574/156 138/575/156 133/576/156
f 138/577/157 123/578/157 128/579/157 143/580/157
f 152/581/158 146/582/158 144/583/158
f 146/584/159 152/585/159 145/586/159
f 151/587/160 157/588/160 144/589/160
f 157/590/161 151/591/161 145/592/161
f 146/593/162 147/594/162 144/595/162
f 147/596/163 146/597/163 145/598/163
f 147/599/164 148/600/164 144/601/164
f 148/602/165 147/603/165 145/604/165
f 148/605/166 149/606/166 144/607/166
f 149/608/167 148/609/167 145/610/167
f 149/611/168 150/612/168 144/613/168
f 150/614/169 149/615/169 145/616/169
f 150/617/170 151/618/170 144/619/170
f 151/620/171 150/621/171 145/622/171
f 153/623/172 152/624/172 144/625/172
f 152/626/173 153/627/173 145/628/173
f 154/629/174 153/630/174 144/631/174
f 153/632/175 154/633/175 145/634/175
f 155/635/176 154/636/176 144/637/176
f 154/638/177 155/639/177 145/640/177
f 156/641/178 155/642/178 144/643/178
f 155/644/179 156/645/179 145/646/179
f 157/647/180 156/648/180 144/649/180
f 156/650/181 157/651/181 145/652/181
f 159/653/182 164/654/182 158/655/182
f 159/656/183 160/657/183 165/658/183 164/659/183
f 160/660/184 161/661/184 166/662/184 165/663/184
f 161/664/185 162/665/185 167/666/185 166/667/185
f 162/668/186 163/669/186 168/670/186 167/671/186
f 164/672/187 169/673/187 158/674/187
f 164/675/188 165/676/188 170/677/188 169/678/188
f 165/679/189 166/680/189 171/681/189 170/682/189
f 166/683/190 167/684/190 172/685/190 171/686/190
f 167/687/191 168/688/191 173/689/191 172/690/191
f 169/691/192 174/692/192 158/693/192
f 169/694/193 170/695/193 175/696/193 174/697/193
f 170/698/194 171/699/194 176/700/194 175/701/194
f 171/702/195 172/703/195 177/704/195 176/705/195
f 172/706/196 173/707/196 178/708/196 177/709/196
f 174/710/197 179/711/197 158/712/197
f 174/713/198 175/714/198 180/715/198 179/716/198
f 175/717/199 176/718/199 181/719/199 180/720/199
f 176/721/200 177/722/200 182/723/200 181/724/200
f 177/725/201 178/726/201 183/727/201 182/728/201
f 179/729/202 184/730/202 158/731/202
f 179/732/203 180/733/203 185/734/203 184/735/203
f 180/736/204 181/737/204 186/738/204 185/739/204
f 181/740/205 182/741/205 187/742/205 186/743/205
f 182/744/206 183/745/206 188/746/206 187/747/206
f 178/748/207 173/749/207 168/750/207 183/751/207
f 187/752/208 162/753/208 161/754/208 186/755/208
f 186/756/209 161/757/209 160/758/209 185/759/209
f 185/760/210 160/761/210 159/762/210 184/763/210
f 158/764/211 184/765/211 185/766/211 160/767/211
f 160/768/212 159/769/212 158/770/212
f 158/771/213 184/772/213 159/773/213
f 197/774/214 191/775/214 189/776/214
f 191/777/215 197/778/215 190/779/215
f 196/780/216 202/781/216 189/782/216
f 202/783/217 196/784/217 190/785/217
f 191/786/218 192/787/218 189/788/218
f 192/789/219 191/790/219 190/791/219
f 192/792/220 193/793/220 189/794/220
f 193/795/221 192/796/221 190/797/221
f 193/798/222 194/799/222 189/800/222
f 194/801/223 193/802/223 190/803/223
f 194/804/224 195/805/224 189/806/224
f 195/807/225 194/808/225 190/809/225
f 195/810/226 196/811/226 189/812/226
f 196/813/227 195/814/227 190/815/227
f 198/816/228 197/817/228 189/818/228
f 197/819/229 198/820/229 190/821/229
f 199/822/230 198/823/230 189/824/230
f 198/825/231 199/826/231 190/827/231
f 200/828/232 199/829/232 189/830/232
f 199/831/233 200/832/233 190/833/233
f 201/834/234 200/835/234 189/836/234
f 200/837/235 201/838/235 190/839/235
f 202/840/236 201/841/236 189/842/236
f 201/843/237 202/844/237 190/845/237